<svg width="20" height="22" viewBox="0 0 20 22" fill="none" xmlns="http://www.w3.org/2000/svg">
<g clip-path="url(#clip0_1_6131)">
<path d="M18.6427 16.7602C18.3163 17.5059 17.9299 18.1924 17.4821 18.8235C16.8719 19.6839 16.3722 20.2794 15.9871 20.6101C15.3901 21.153 14.7505 21.431 14.0656 21.4468C13.5739 21.4468 12.981 21.3085 12.2907 21.0278C11.5982 20.7485 10.9618 20.6101 10.3799 20.6101C9.76964 20.6101 9.11512 20.7485 8.41503 21.0278C7.71386 21.3085 7.14902 21.4547 6.71716 21.4692C6.06037 21.4969 5.40571 21.211 4.75226 20.6101C4.33518 20.2504 3.81351 19.6338 3.18857 18.7602C2.51806 17.8274 1.9668 16.7457 1.53494 15.5124C1.07243 14.1803 0.840576 12.8904 0.840576 11.6416C0.840576 10.2111 1.15318 8.9773 1.77932 7.94339C2.27141 7.11292 2.92607 6.45781 3.74542 5.97689C4.56477 5.49597 5.45008 5.2509 6.40349 5.23522C6.92516 5.23522 7.60926 5.39478 8.4594 5.70837C9.30713 6.02301 9.85146 6.18257 10.0901 6.18257C10.2685 6.18257 10.8732 5.996 11.8983 5.62404C12.8677 5.2791 13.6859 5.13627 14.3561 5.19253C16.1723 5.33747 17.5368 6.04541 18.4442 7.32083C16.8199 8.294 16.0164 9.65704 16.0324 11.4056C16.047 12.7676 16.5467 13.901 17.5288 14.8009C17.9738 15.2186 18.4708 15.5414 19.0238 15.7706C18.9039 16.1145 18.7773 16.4439 18.6427 16.7602ZM14.4774 0.552521C14.4774 1.62004 14.0829 2.61678 13.2968 3.53936C12.348 4.63612 11.2005 5.26988 9.95606 5.16987C9.9402 5.0418 9.93101 4.90701 9.93101 4.76537C9.93101 3.74055 10.3822 2.64379 11.1834 1.74704C11.5834 1.293 12.0922 0.915476 12.7091 0.614315C13.3247 0.317647 13.907 0.153583 14.4547 0.125488C14.4707 0.268199 14.4774 0.410919 14.4774 0.552507V0.552521Z" fill="#323142"/>
</g>
<defs>
<clipPath id="clip0_1_6131">
<rect width="18.1833" height="21.3456" fill="white" transform="translate(0.840332 0.124512)"/>
</clipPath>
</defs>
</svg>
