<svg width="122" height="22" viewBox="0 0 122 22" fill="none" xmlns="http://www.w3.org/2000/svg">
<g id="Arrows">
<g id="Back">
<path id="Vector 165 (Stroke)" fill-rule="evenodd" clip-rule="evenodd" d="M32.7129 11.0887C32.7129 11.7433 32.1823 12.2739 31.5277 12.2739L3.08226 12.2739C2.4277 12.2739 1.89708 11.7433 1.89708 11.0887C1.89708 10.4342 2.4277 9.90356 3.08226 9.90356L31.5277 9.90356C32.1823 9.90356 32.7129 10.4342 32.7129 11.0887Z" fill="#CECECE"/>
<path id="Vector 166 (Stroke)" fill-rule="evenodd" clip-rule="evenodd" d="M10.1624 21.48C9.65957 21.8991 8.91224 21.8311 8.49319 21.3283L1.01322 12.3527C0.402741 11.6201 0.402743 10.556 1.01322 9.82351L8.49319 0.847887C8.91224 0.345049 9.65957 0.277122 10.1624 0.696171C10.6652 1.11522 10.7332 1.86255 10.3141 2.36539L3.04493 11.0881L10.3141 19.8108C10.7332 20.3136 10.6652 21.061 10.1624 21.48Z" fill="#CECECE"/>
</g>
<g id="Back_2">
<path id="Vector 165 (Stroke)_2" fill-rule="evenodd" clip-rule="evenodd" d="M89.4441 11.0896C89.4441 10.435 89.9747 9.90442 90.6293 9.90442L119.075 9.90442C119.729 9.90442 120.26 10.435 120.26 11.0896C120.26 11.7442 119.729 12.2748 119.075 12.2748L90.6293 12.2748C89.9747 12.2748 89.4441 11.7442 89.4441 11.0896Z" fill="#605E5E"/>
<path id="Vector 166 (Stroke)_2" fill-rule="evenodd" clip-rule="evenodd" d="M111.996 0.697351C112.498 0.278304 113.246 0.34623 113.665 0.849067L121.145 9.82469C121.755 10.5572 121.755 11.6213 121.145 12.3539L113.665 21.3295C113.246 21.8323 112.498 21.9002 111.996 21.4812C111.493 21.0622 111.425 20.3148 111.844 19.812L119.113 11.0893L111.844 2.36657C111.425 1.86373 111.493 1.1164 111.996 0.697351Z" fill="#605E5E"/>
</g>
</g>
</svg>
