<svg width="766" height="259" viewBox="0 0 766 259" fill="none" xmlns="http://www.w3.org/2000/svg">
<rect x="4" width="758" height="251" rx="18.6929" fill="#5C4EAE"/>
<mask id="mask0_30_166" style="mask-type:alpha" maskUnits="userSpaceOnUse" x="4" y="0" width="758" height="251">
<rect opacity="0.8" x="4" width="758" height="251" rx="18.6929" fill="#6C5FBC"/>
</mask>
<g mask="url(#mask0_30_166)">
<g opacity="0.25">
<path d="M589.286 143.46C586.029 141.428 584.062 137.66 584.548 133.612C585.219 128.023 590.335 124.022 595.956 124.689C600.958 125.283 604.692 129.37 604.985 134.217C601.932 134.017 599.173 135.933 598.272 138.762C597.915 138.666 597.542 138.581 597.165 138.536C593.633 138.116 590.383 140.246 589.286 143.46Z" stroke="#151254" stroke-width="2.26737" stroke-linecap="round" stroke-linejoin="round"/>
<path d="M600.796 131.285C600.895 130.466 600.302 129.716 599.48 129.619C598.658 129.522 597.904 130.113 597.805 130.931C597.706 131.749 598.299 132.499 599.121 132.596C599.956 132.695 600.697 132.103 600.796 131.285Z" fill="#201D67"/>
<path d="M608.996 128.927C609.094 128.109 608.502 127.359 607.68 127.262C606.858 127.165 606.103 127.756 606.005 128.574C605.906 129.392 606.499 130.142 607.321 130.239C608.158 130.324 608.897 129.745 608.996 128.927Z" fill="#201D67"/>
<path d="M595.679 135.069C595.778 134.251 595.185 133.5 594.363 133.403C593.542 133.306 592.787 133.897 592.688 134.715C592.59 135.533 593.182 136.283 594.004 136.381C594.84 136.479 595.581 135.887 595.679 135.069Z" fill="#201D67"/>
<path d="M589.527 135.644C589.527 135.644 589.399 135.343 589.227 134.956C589.067 134.583 588.927 134.268 588.927 134.268C588.927 134.268 589.055 134.568 589.227 134.956C589.401 135.33 589.527 135.644 589.527 135.644Z" stroke="#151254" stroke-width="2.26737" stroke-linecap="round" stroke-linejoin="round"/>
<path d="M594.215 129.28C594.215 129.28 594.043 129.573 593.836 129.929C593.629 130.285 593.458 130.577 593.458 130.577C593.458 130.577 593.629 130.285 593.836 129.929C594.043 129.573 594.215 129.28 594.215 129.28Z" stroke="#151254" stroke-width="2.26737" stroke-linecap="round" stroke-linejoin="round"/>
<path d="M603.493 123.64C603.493 123.64 603.693 123.909 603.94 124.237C604.188 124.566 604.388 124.834 604.388 124.834C604.388 124.834 604.188 124.566 603.94 124.237C603.693 123.909 603.493 123.64 603.493 123.64Z" stroke="#151254" stroke-width="2.26737" stroke-linecap="round" stroke-linejoin="round"/>
<path d="M596.147 121.393C597.905 120.188 600.082 119.59 602.361 119.861C607.335 120.451 610.884 124.937 610.29 129.883C609.811 133.877 606.775 136.956 602.997 137.677" stroke="#151254" stroke-width="2.26737" stroke-linecap="round" stroke-linejoin="round"/>
<path d="M499.559 -9.07324L483.656 -5.35173L498.223 1.95943" stroke="#151254" stroke-width="2.26737" stroke-linecap="round" stroke-linejoin="round"/>
<path d="M498.581 4.80242C498.609 4.57454 498.62 4.37189 498.616 4.18106C498.553 2.67807 497.48 2.34744 497.703 0.497564C497.954 -1.5802 499.332 -1.41746 499.58 -3.46842C499.831 -5.54618 498.453 -5.70892 498.7 -7.75988C498.923 -9.60976 500.03 -9.66944 500.464 -11.1274C500.511 -11.2985 500.551 -11.5114 500.578 -11.7393" stroke="#151254" stroke-width="2.26737" stroke-linecap="round" stroke-linejoin="round"/>
<path d="M500.827 3.67847C500.1 3.59307 499.387 3.40034 498.755 3.09475C498.667 1.79163 497.583 1.50094 497.776 -0.0823185C497.992 -1.86684 499.378 -1.70394 499.591 -3.46163C499.808 -5.24614 498.422 -5.40903 498.635 -7.16671C498.827 -8.74997 499.938 -8.7963 500.347 -10.0275C501.032 -10.1647 501.774 -10.2 502.5 -10.1146C506.322 -9.6655 509.043 -6.21575 508.58 -2.4052C508.118 1.40534 504.649 4.12761 500.827 3.67847Z" stroke="#151254" stroke-width="2.26737" stroke-linecap="round" stroke-linejoin="round"/>
<path d="M496.681 3.17402L498.335 -10.6045" stroke="#151254" stroke-width="2.26737" stroke-linecap="round" stroke-linejoin="round"/>
<path d="M480.552 132.524L481.75 122.604L480.327 122.435L479.129 132.356L480.552 132.524Z" stroke="#151254" stroke-width="2.26737" stroke-linecap="round" stroke-linejoin="round"/>
<path d="M491.22 139.882C491.11 140.794 490.164 141.389 489.303 141.07C483.943 139.01 480.459 133.526 481.179 127.572C481.899 121.618 486.594 117.099 492.294 116.342C493.209 116.219 493.986 117.018 493.874 117.943L491.22 139.882V139.882Z" stroke="#151254" stroke-width="2.26737" stroke-linecap="round" stroke-linejoin="round"/>
<path d="M493.203 123.574C493.014 125.138 494.133 126.555 495.702 126.74C497.272 126.925 498.697 125.808 498.886 124.244C499.076 122.681 497.957 121.263 496.387 121.078C494.818 120.893 493.393 122.011 493.203 123.574Z" stroke="#151254" stroke-width="2.26737" stroke-linecap="round" stroke-linejoin="round"/>
<path d="M492.134 134.295C491.945 135.858 493.064 137.276 494.633 137.461C496.202 137.646 497.628 136.528 497.817 134.965C498.006 133.401 496.887 131.984 495.318 131.799C493.749 131.614 492.323 132.732 492.134 134.295Z" stroke="#151254" stroke-width="2.26737" stroke-linecap="round" stroke-linejoin="round"/>
<path d="M492.709 129.388C492.566 130.567 493.409 131.635 494.592 131.774C495.775 131.913 496.849 131.071 496.991 129.893C497.134 128.715 496.291 127.647 495.108 127.507C493.926 127.368 492.851 128.21 492.709 129.388Z" stroke="#151254" stroke-width="2.26737" stroke-linecap="round" stroke-linejoin="round"/>
<path d="M498.886 122.686L503.896 118.762" stroke="#151254" stroke-width="2.26737" stroke-linecap="round" stroke-linejoin="round"/>
<path d="M489.587 117.799L487.037 139.03" stroke="#151254" stroke-width="2.26737" stroke-linecap="round" stroke-linejoin="round"/>
<path d="M554.018 83.1978L556.925 59.0693C554.692 58.8051 552.674 60.3881 552.406 62.6133L550.468 78.6989C550.2 80.9241 551.785 82.9336 554.018 83.1978Z" stroke="#151254" stroke-width="2.26737" stroke-linecap="round" stroke-linejoin="round"/>
<path d="M567.602 72.5721C568.317 66.6457 564.074 61.2758 558.122 60.5721L556.775 60.4129L554.187 81.8656L555.534 82.0248C561.487 82.7285 566.887 78.4984 567.602 72.5721Z" stroke="#151254" stroke-width="2.26737" stroke-linecap="round" stroke-linejoin="round"/>
<path d="M566.599 72.4586C566.442 73.7548 567.371 74.9303 568.673 75.0842C569.975 75.2381 571.158 74.3121 571.314 73.0159C571.47 71.7197 570.542 70.5442 569.239 70.3903C567.937 70.2364 566.755 71.1624 566.599 72.4586Z" fill="#201D67"/>
<path d="M584.391 -10.7812C583.716 -7.09576 581.639 -3.57672 578.293 -0.996705C574.978 1.55971 571.012 2.70657 567.209 2.49972" stroke="#151254" stroke-width="2.26737" stroke-linecap="round" stroke-linejoin="round"/>
<path d="M566.149 3.92262L565.942 2.22601L563.839 -14.9893C563.557 -17.3067 565.816 -19.0369 568.04 -18.2019L572.751 -16.4463L573.052 -16.3291L577.147 -14.7961L577.54 -14.6542L584.409 -12.0716L586.083 -11.4379C587.692 -10.8389 588.566 -9.11749 588.1 -7.51431C586.956 -3.57176 584.642 -0.0129121 581.206 2.63792C577.799 5.27856 573.74 6.63188 569.576 6.80372C567.873 6.87334 566.357 5.60582 566.149 3.92262Z" stroke="#151254" stroke-width="2.26737" stroke-linecap="round" stroke-linejoin="round"/>
<path d="M550.404 202.724C548.363 199.777 547.364 195.974 547.876 191.969C548.383 187.991 550.286 184.53 553.003 182.104" stroke="#151254" stroke-width="2.26737" stroke-linecap="round" stroke-linejoin="round"/>
<path d="M547.38 182.092C545.28 184.77 543.882 187.967 543.43 191.479C542.905 195.595 543.761 199.575 545.666 203.024C546.439 204.422 548.213 204.998 549.714 204.331L551.288 203.632L557.704 200.727C557.704 200.727 562.269 198.666 566.575 196.723C568.655 195.784 569.01 193.077 567.238 191.698L554.083 181.439L552.785 180.429C551.499 179.433 549.608 179.592 548.506 180.796C548.103 181.197 547.735 181.644 547.38 182.092Z" stroke="#151254" stroke-width="2.26737" stroke-linecap="round" stroke-linejoin="round"/>
<path d="M555.02 187.961C555.193 187.655 555.237 187.293 555.142 186.955C555.095 186.772 555.017 186.627 554.912 186.479C554.686 186.207 554.367 186.02 554.017 185.979C553.653 185.936 553.314 186.032 553.027 186.257C552.74 186.481 552.567 186.788 552.523 187.15C552.479 187.512 552.575 187.85 552.8 188.135C553.025 188.42 553.345 188.594 553.695 188.635C554.045 188.676 554.4 188.568 554.685 188.357C554.834 188.252 554.946 188.116 555.02 187.961Z" fill="#201D67"/>
<path d="M553.064 193.085C553.237 192.779 553.281 192.417 553.186 192.079C553.138 191.91 553.061 191.751 552.956 191.603C552.73 191.331 552.411 191.144 552.061 191.103C551.697 191.06 551.358 191.156 551.071 191.381C550.784 191.605 550.611 191.912 550.567 192.274C550.523 192.636 550.619 192.974 550.844 193.259C551.069 193.544 551.376 193.716 551.739 193.759C552.089 193.8 552.444 193.692 552.729 193.481C552.865 193.375 552.975 193.252 553.064 193.085Z" fill="#201D67"/>
<path d="M553.427 198.949C553.985 198.511 554.093 197.626 553.654 197.071C553.428 196.799 553.109 196.612 552.759 196.571C552.395 196.528 552.056 196.624 551.769 196.849C551.482 197.073 551.309 197.38 551.265 197.742C551.244 197.916 551.263 198.095 551.313 198.251C551.36 198.42 551.437 198.579 551.542 198.727C551.767 199.012 552.074 199.184 552.437 199.227C552.776 199.253 553.144 199.147 553.427 198.949Z" fill="#201D67"/>
<path d="M558.592 197.155C558.775 197.109 558.921 197.031 559.071 196.926C559.629 196.488 559.736 195.602 559.298 195.047C559.178 194.911 559.055 194.801 558.888 194.713C558.734 194.627 558.564 194.566 558.402 194.547C558.227 194.526 558.047 194.546 557.891 194.596C557.721 194.644 557.562 194.72 557.413 194.825C557.126 195.05 556.952 195.356 556.908 195.718C556.887 195.893 556.907 196.072 556.956 196.227C557.004 196.396 557.08 196.555 557.185 196.704C557.41 196.989 557.717 197.161 558.081 197.204C558.242 197.223 558.422 197.203 558.592 197.155Z" fill="#201D67"/>
<path d="M559.228 191.861C559.398 191.813 559.557 191.737 559.706 191.632C560.266 191.181 560.374 190.295 559.934 189.753C559.814 189.617 559.69 189.507 559.523 189.419C559.37 189.333 559.2 189.272 559.038 189.253C558.675 189.21 558.335 189.306 558.048 189.531C557.911 189.651 557.799 189.788 557.712 189.941C557.625 190.094 557.564 190.263 557.543 190.438C557.499 190.8 557.594 191.138 557.819 191.423C557.94 191.56 558.076 191.671 558.23 191.757C558.382 191.857 558.553 191.904 558.715 191.923C558.878 191.929 559.057 191.923 559.228 191.861Z" fill="#201D67"/>
<path d="M563.041 192.816C562.755 193.04 562.581 193.347 562.537 193.709C562.516 193.883 562.535 194.062 562.585 194.218C562.633 194.387 562.709 194.546 562.814 194.694C562.934 194.831 563.071 194.942 563.224 195.028C563.378 195.114 563.548 195.175 563.709 195.194C564.073 195.237 564.414 195.127 564.699 194.916C565.108 194.583 565.313 194.022 565.157 193.5C565.111 193.318 565.033 193.173 564.928 193.024C564.702 192.753 564.383 192.565 564.033 192.524C563.858 192.504 563.678 192.523 563.521 192.573C563.35 192.634 563.191 192.711 563.041 192.816Z" fill="#201D67"/>
<path d="M387.135 139.094C385.093 136.147 384.095 132.345 384.607 128.339C385.114 124.361 387.017 120.901 389.734 118.475" stroke="#151254" stroke-width="2.26737" stroke-linecap="round" stroke-linejoin="round"/>
<path d="M384.11 118.462C382.01 121.14 380.613 124.337 380.16 127.849C379.635 131.965 380.492 135.945 382.396 139.394C383.17 140.792 384.944 141.368 386.445 140.701L388.018 140.002L394.434 137.097C394.434 137.097 399 135.036 403.305 133.093C405.386 132.154 405.741 129.447 403.968 128.068L390.814 117.809L389.515 116.799C388.229 115.804 386.339 115.962 385.237 117.166C384.833 117.567 384.465 118.014 384.11 118.462Z" stroke="#151254" stroke-width="2.26737" stroke-linecap="round" stroke-linejoin="round"/>
<path d="M391.751 124.333C391.924 124.027 391.968 123.665 391.873 123.327C391.826 123.144 391.748 122.999 391.643 122.851C391.417 122.579 391.098 122.392 390.748 122.351C390.384 122.308 390.045 122.404 389.758 122.629C389.471 122.853 389.298 123.16 389.254 123.522C389.21 123.884 389.306 124.222 389.531 124.507C389.756 124.792 390.076 124.966 390.426 125.007C390.776 125.048 391.131 124.941 391.416 124.729C391.565 124.624 391.677 124.488 391.751 124.333Z" fill="#201D67"/>
<path d="M389.796 129.457C389.969 129.151 390.013 128.789 389.917 128.451C389.87 128.282 389.793 128.123 389.688 127.975C389.462 127.703 389.143 127.516 388.793 127.475C388.429 127.432 388.09 127.528 387.803 127.753C387.516 127.977 387.343 128.284 387.299 128.646C387.255 129.008 387.351 129.346 387.576 129.631C387.801 129.916 388.108 130.088 388.471 130.131C388.821 130.172 389.176 130.065 389.461 129.853C389.597 129.747 389.707 129.624 389.796 129.457Z" fill="#201D67"/>
<path d="M390.158 135.321C390.716 134.883 390.824 133.998 390.385 133.443C390.159 133.171 389.84 132.984 389.49 132.943C389.126 132.9 388.787 132.996 388.5 133.221C388.213 133.445 388.04 133.752 387.996 134.114C387.975 134.288 387.994 134.467 388.044 134.623C388.091 134.792 388.168 134.951 388.273 135.099C388.498 135.384 388.805 135.556 389.168 135.599C389.507 135.625 389.875 135.519 390.158 135.321Z" fill="#201D67"/>
<path d="M395.323 133.528C395.506 133.482 395.652 133.404 395.801 133.299C396.359 132.861 396.467 131.975 396.028 131.42C395.908 131.284 395.785 131.174 395.618 131.086C395.465 131 395.294 130.939 395.133 130.92C394.958 130.9 394.778 130.919 394.622 130.969C394.452 131.017 394.292 131.093 394.143 131.198C393.856 131.423 393.683 131.729 393.639 132.091C393.618 132.266 393.637 132.445 393.687 132.601C393.734 132.769 393.811 132.928 393.916 133.077C394.141 133.362 394.448 133.534 394.811 133.577C394.973 133.596 395.153 133.576 395.323 133.528Z" fill="#201D67"/>
<path d="M395.958 128.234C396.128 128.186 396.288 128.11 396.437 128.005C396.997 127.554 397.104 126.668 396.664 126.126C396.544 125.99 396.421 125.88 396.254 125.792C396.1 125.706 395.93 125.645 395.769 125.626C395.405 125.583 395.066 125.679 394.779 125.904C394.641 126.024 394.529 126.161 394.443 126.314C394.356 126.467 394.294 126.636 394.273 126.811C394.229 127.173 394.325 127.511 394.55 127.796C394.67 127.933 394.807 128.044 394.96 128.13C395.112 128.23 395.284 128.277 395.445 128.296C395.609 128.302 395.787 128.296 395.958 128.234Z" fill="#201D67"/>
<path d="M399.772 129.188C399.485 129.412 399.311 129.719 399.267 130.081C399.246 130.255 399.266 130.434 399.315 130.59C399.363 130.759 399.439 130.918 399.544 131.066C399.664 131.203 399.801 131.314 399.955 131.4C400.108 131.486 400.278 131.547 400.44 131.566C400.803 131.609 401.145 131.5 401.43 131.288C401.839 130.955 402.043 130.394 401.888 129.872C401.842 129.69 401.764 129.545 401.659 129.396C401.432 129.125 401.113 128.937 400.763 128.896C400.588 128.876 400.408 128.895 400.252 128.945C400.08 129.006 399.921 129.083 399.772 129.188Z" fill="#201D67"/>
<path d="M464.9 63.44C461.644 61.4085 459.676 57.6404 460.162 53.5926C460.833 48.0035 465.949 44.0023 471.57 44.6697C476.572 45.2634 480.306 49.35 480.599 54.1972C477.546 53.9979 474.787 55.9134 473.886 58.7429C473.529 58.6461 473.156 58.561 472.779 58.5162C469.247 58.0969 465.997 60.226 464.9 63.44Z" stroke="#151254" stroke-width="2.26737" stroke-linecap="round" stroke-linejoin="round"/>
<path d="M476.412 51.265C476.51 50.4469 475.918 49.6967 475.096 49.5996C474.274 49.5025 473.519 50.0934 473.421 50.9115C473.322 51.7296 473.915 52.4798 474.737 52.5769C475.572 52.6756 476.313 52.0831 476.412 51.265Z" fill="#201D67"/>
<path d="M484.611 48.9076C484.71 48.0895 484.117 47.3393 483.296 47.2422C482.474 47.1451 481.719 47.736 481.621 48.5541C481.522 49.3721 482.115 50.1223 482.936 50.2195C483.773 50.3048 484.513 49.7257 484.611 48.9076Z" fill="#201D67"/>
<path d="M471.295 55.0482C471.393 54.2301 470.8 53.48 469.979 53.3828C469.157 53.2857 468.402 53.8766 468.304 54.6947C468.205 55.5128 468.798 56.263 469.62 56.3601C470.455 56.4588 471.196 55.8663 471.295 55.0482Z" fill="#201D67"/>
<path d="M465.142 55.6246C465.142 55.6246 465.014 55.3239 464.842 54.9364C464.681 54.564 464.541 54.2483 464.541 54.2483C464.541 54.2483 464.669 54.549 464.842 54.9364C465.016 55.3105 465.142 55.6246 465.142 55.6246Z" stroke="#151254" stroke-width="2.26737" stroke-linecap="round" stroke-linejoin="round"/>
<path d="M469.83 49.2627C469.83 49.2627 469.658 49.5549 469.451 49.911C469.245 50.2671 469.073 50.5594 469.073 50.5594C469.073 50.5594 469.245 50.2671 469.451 49.911C469.658 49.5549 469.83 49.2627 469.83 49.2627Z" stroke="#151254" stroke-width="2.26737" stroke-linecap="round" stroke-linejoin="round"/>
<path d="M479.107 43.6206C479.107 43.6206 479.308 43.889 479.555 44.2175C479.803 44.546 480.003 44.8145 480.003 44.8145C480.003 44.8145 479.803 44.546 479.555 44.2175C479.308 43.889 479.107 43.6206 479.107 43.6206Z" stroke="#151254" stroke-width="2.26737" stroke-linecap="round" stroke-linejoin="round"/>
<path d="M471.761 41.3756C473.519 40.1705 475.697 39.5726 477.975 39.843C482.949 40.4336 486.499 44.9197 485.905 49.8655C485.425 53.8596 482.389 56.9385 478.611 57.6591" stroke="#151254" stroke-width="2.26737" stroke-linecap="round" stroke-linejoin="round"/>
<path d="M504.322 248.043C504.618 247.204 504.699 246.304 504.557 245.427C504.415 244.55 504.055 243.723 503.509 243.021C503.265 242.722 502.914 242.529 502.53 242.484C502.145 242.439 501.758 242.544 501.449 242.778L499.675 244.12" stroke="#151254" stroke-width="2.26737" stroke-linecap="round" stroke-linejoin="round"/>
<path d="M492.89 256.826C491.992 256.907 491.088 256.765 490.261 256.41C489.433 256.056 488.708 255.502 488.15 254.798C488.031 254.649 487.943 254.477 487.891 254.294C487.839 254.11 487.824 253.918 487.847 253.728C487.87 253.539 487.93 253.355 488.024 253.189C488.119 253.022 488.245 252.876 488.397 252.759L490.174 251.389" stroke="#151254" stroke-width="2.26737" stroke-linecap="round" stroke-linejoin="round"/>
<path d="M490.707 244.131C489.762 244.581 488.708 244.754 487.669 244.63C486.968 244.547 486.29 244.327 485.676 243.981C485.061 243.635 484.522 243.171 484.089 242.616C484.015 242.513 483.982 242.385 483.998 242.259C484.013 242.132 484.075 242.016 484.172 241.932C484.671 241.546 485.239 241.257 485.845 241.081C486.294 240.909 486.767 240.809 487.247 240.784C487.537 240.787 487.826 240.821 488.109 240.885C489.389 241.281 490.502 242.086 491.274 243.177C490.419 242.15 489.922 240.874 489.856 239.54C489.864 239.251 489.898 238.963 489.96 238.681C490.109 238.223 490.327 237.789 490.607 237.396C490.952 236.851 491.399 236.377 491.924 236C492.028 235.926 492.156 235.894 492.283 235.909C492.41 235.924 492.527 235.985 492.61 236.081C493.474 237.201 493.862 238.615 493.691 240.019C493.56 241.048 493.134 242.018 492.465 242.814" stroke="#151254" stroke-width="2.26737" stroke-linecap="round" stroke-linejoin="round"/>
<path d="M505.716 261.505C505.917 261.368 506.102 261.207 506.265 261.026C506.685 260.515 506.999 259.927 507.188 259.295C507.377 258.663 507.437 258 507.366 257.345C507.32 255.811 506.999 254.299 506.418 252.879C505.507 250.23 503.85 247.899 501.644 246.165C499.406 244.594 496.837 243.551 494.132 243.116C493.944 243.094 492.558 242.7 492.445 242.836L490.73 244.145C490.57 244.221 490.55 245.634 490.594 245.83C490.336 248.561 490.718 251.312 491.711 253.868C492.836 256.42 494.687 258.587 497.035 260.102C499.356 261.573 503.113 263.376 505.716 261.505Z" stroke="#151254" stroke-width="2.26737" stroke-linecap="round" stroke-linejoin="round"/>
<path d="M505.289 251.983C503.385 252.311 501.589 253.094 500.054 254.265C498.522 255.443 497.305 256.977 496.509 258.733" stroke="#151254" stroke-width="2.26737" stroke-linecap="round" stroke-linejoin="round"/>
<path d="M355.882 187.688C356.178 186.849 356.259 185.95 356.117 185.073C355.975 184.195 355.615 183.368 355.069 182.666C354.825 182.367 354.474 182.175 354.089 182.129C353.705 182.084 353.317 182.19 353.009 182.423L351.235 183.766" stroke="#151254" stroke-width="2.26737" stroke-linecap="round" stroke-linejoin="round"/>
<path d="M344.449 196.472C343.551 196.553 342.648 196.41 341.82 196.056C340.993 195.702 340.267 195.148 339.709 194.444C339.59 194.294 339.502 194.123 339.45 193.939C339.398 193.755 339.383 193.563 339.406 193.374C339.429 193.184 339.49 193.001 339.584 192.834C339.678 192.668 339.805 192.522 339.956 192.404L341.734 191.035" stroke="#151254" stroke-width="2.26737" stroke-linecap="round" stroke-linejoin="round"/>
<path d="M342.267 183.776C341.322 184.226 340.268 184.399 339.229 184.276C338.527 184.193 337.85 183.972 337.235 183.626C336.621 183.281 336.081 182.817 335.648 182.262C335.574 182.158 335.542 182.031 335.557 181.904C335.573 181.778 335.635 181.661 335.731 181.578C336.23 181.191 336.798 180.903 337.405 180.727C337.854 180.555 338.327 180.454 338.807 180.429C339.097 180.432 339.386 180.466 339.669 180.531C340.949 180.926 342.061 181.732 342.833 182.822C341.979 181.795 341.481 180.519 341.416 179.185C341.423 178.896 341.458 178.609 341.52 178.326C341.668 177.868 341.887 177.435 342.167 177.042C342.512 176.497 342.959 176.023 343.483 175.645C343.588 175.572 343.716 175.539 343.843 175.554C343.97 175.569 344.086 175.63 344.17 175.726C345.034 176.846 345.422 178.26 345.251 179.664C345.119 180.693 344.694 181.663 344.024 182.459" stroke="#151254" stroke-width="2.26737" stroke-linecap="round" stroke-linejoin="round"/>
<path d="M357.275 201.151C357.477 201.013 357.661 200.852 357.825 200.671C358.245 200.161 358.558 199.572 358.747 198.94C358.936 198.308 358.997 197.646 358.926 196.991C358.88 195.457 358.559 193.944 357.978 192.524C357.066 189.875 355.409 187.545 353.204 185.811C350.966 184.239 348.397 183.197 345.692 182.762C345.503 182.74 344.117 182.345 344.005 182.482L342.29 183.79C342.13 183.867 342.109 185.279 342.154 185.475C341.896 188.206 342.278 190.958 343.271 193.513C344.396 196.065 346.246 198.232 348.594 199.747C350.916 201.218 354.672 203.022 357.275 201.151Z" stroke="#151254" stroke-width="2.26737" stroke-linecap="round" stroke-linejoin="round"/>
<path d="M356.848 191.628C354.945 191.956 353.148 192.739 351.614 193.91C350.082 195.087 348.864 196.622 348.068 198.378" stroke="#151254" stroke-width="2.26737" stroke-linecap="round" stroke-linejoin="round"/>
<path d="M356.111 197.421C356.256 197.312 356.378 197.174 356.469 197.016C356.56 196.858 356.618 196.684 356.64 196.504C356.662 196.323 356.647 196.141 356.596 195.966C356.545 195.792 356.46 195.63 356.345 195.489C356.177 195.284 355.951 195.133 355.697 195.055C355.443 194.976 355.172 194.974 354.916 195.048C354.66 195.123 354.432 195.27 354.26 195.473C354.087 195.675 353.978 195.923 353.947 196.187C353.915 196.45 353.961 196.716 354.08 196.953C354.2 197.19 354.386 197.386 354.617 197.518C354.848 197.65 355.112 197.711 355.378 197.693C355.644 197.676 355.898 197.582 356.111 197.421Z" fill="#201D67"/>
<path d="M374.18 54.6398L375.378 44.7197L373.955 44.5517L372.758 54.4717L374.18 54.6398Z" stroke="#151254" stroke-width="2.26737" stroke-linecap="round" stroke-linejoin="round"/>
<path d="M384.848 61.9989C384.737 62.9107 383.792 63.5066 382.93 63.1874C377.571 61.1276 374.086 55.6436 374.806 49.6896C375.526 43.7356 380.221 39.2158 385.921 38.4595C386.837 38.3361 387.613 39.135 387.501 40.0602L384.848 61.9989V61.9989Z" stroke="#151254" stroke-width="2.26737" stroke-linecap="round" stroke-linejoin="round"/>
<path d="M386.832 45.6906C386.643 47.254 387.761 48.6714 389.331 48.8563C390.9 49.0412 392.326 47.9237 392.515 46.3602C392.704 44.7968 391.585 43.3794 390.016 43.1945C388.447 43.0095 387.021 44.1271 386.832 45.6906Z" stroke="#151254" stroke-width="2.26737" stroke-linecap="round" stroke-linejoin="round"/>
<path d="M385.762 56.4112C385.573 57.9747 386.692 59.3921 388.261 59.577C389.831 59.7619 391.256 58.6444 391.446 57.0809C391.635 55.5174 390.516 54.1001 388.947 53.9152C387.377 53.7302 385.952 54.8478 385.762 56.4112Z" stroke="#151254" stroke-width="2.26737" stroke-linecap="round" stroke-linejoin="round"/>
<path d="M386.338 51.5036C386.195 52.6818 387.038 53.7499 388.221 53.8892C389.404 54.0286 390.478 53.1864 390.62 52.0083C390.763 50.8301 389.92 49.762 388.737 49.6227C387.555 49.4833 386.48 50.3254 386.338 51.5036Z" stroke="#151254" stroke-width="2.26737" stroke-linecap="round" stroke-linejoin="round"/>
<path d="M392.513 44.8017L397.523 40.8779" stroke="#151254" stroke-width="2.26737" stroke-linecap="round" stroke-linejoin="round"/>
<path d="M383.214 39.916L380.664 61.1468" stroke="#151254" stroke-width="2.26737" stroke-linecap="round" stroke-linejoin="round"/>
<path d="M429.632 3.17824L432.539 -20.9502C430.306 -21.2144 428.288 -19.6315 428.02 -17.4063L426.082 -1.32065C425.814 0.904527 427.4 2.91403 429.632 3.17824Z" stroke="#151254" stroke-width="2.26737" stroke-linecap="round" stroke-linejoin="round"/>
<path d="M443.217 -7.44845C443.932 -13.3748 439.689 -18.7447 433.737 -19.4484L432.39 -19.6076L429.803 1.84509L431.149 2.00429C437.102 2.70796 442.502 -1.52214 443.217 -7.44845Z" stroke="#151254" stroke-width="2.26737" stroke-linecap="round" stroke-linejoin="round"/>
<path d="M399.239 253.648L387.1 238.284C385.808 236.648 383.436 236.368 381.792 237.656C380.147 238.945 379.862 241.305 381.154 242.94L393.294 258.304C394.586 259.94 396.957 260.22 398.602 258.932C400.247 257.643 400.531 255.283 399.239 253.648Z" stroke="#151254" stroke-width="2.26737" stroke-linecap="round" stroke-linejoin="round"/>
<path d="M384.924 240.951C386.322 242.722 385.688 243.219 387.084 245.003C388.481 246.773 389.115 246.276 390.526 248.048C391.923 249.819 391.288 250.329 392.685 252.099C394.083 253.87 394.73 253.374 396.127 255.145" stroke="#151254" stroke-width="2.26737" stroke-linecap="round" stroke-linejoin="round"/>
<path d="M401.401 249.093L392.059 237.27C390.506 235.304 387.664 234.968 385.687 236.517L400.624 255.421C402.613 253.888 402.956 251.045 401.401 249.093Z" stroke="#151254" stroke-width="2.26737" stroke-linecap="round" stroke-linejoin="round"/>
<path d="M378.991 247.498L388.333 259.321C389.886 261.286 392.728 261.622 394.705 260.074L379.768 241.169C377.779 242.703 377.436 245.546 378.991 247.498Z" stroke="#151254" stroke-width="2.26737" stroke-linecap="round" stroke-linejoin="round"/>
<path d="M590.686 265.021L592.302 251.615C592.59 249.228 594.761 247.527 597.157 247.811L599.741 248.116L597.084 270.156L594.5 269.85C592.104 269.567 590.399 267.407 590.686 265.021Z" stroke="#151254" stroke-width="2.26737" stroke-linecap="round" stroke-linejoin="round"/>
<path d="M601.321 269.966L603.811 249.296C603.948 248.156 603.132 247.122 601.988 246.986C600.845 246.851 599.806 247.666 599.669 248.806L597.178 269.476C597.041 270.615 597.858 271.65 599.001 271.785C600.144 271.92 601.183 271.105 601.321 269.966Z" stroke="#151254" stroke-width="2.26737" stroke-linecap="round" stroke-linejoin="round"/>
<path d="M613.56 261.653L613.732 260.232C614.419 254.534 610.343 249.374 604.62 248.698L603.906 248.613L601.248 270.655L601.961 270.74C607.684 271.416 612.873 267.352 613.56 261.653Z" stroke="#151254" stroke-width="2.26737" stroke-linecap="round" stroke-linejoin="round"/>
<path d="M599.423 247.933C598.795 248.389 597.983 248.674 597.865 249.652C597.746 250.631 598.468 251.097 598.97 251.687" stroke="#151254" stroke-width="2.26737" stroke-linecap="round" stroke-linejoin="round"/>
<path d="M428.132 195.428L429.748 182.022C430.036 179.636 432.207 177.934 434.603 178.218L437.187 178.523L434.53 200.563L431.946 200.257C429.55 199.974 427.844 197.814 428.132 195.428Z" stroke="#151254" stroke-width="2.26737" stroke-linecap="round" stroke-linejoin="round"/>
<path d="M438.766 200.371L441.257 179.701C441.394 178.562 440.577 177.527 439.434 177.392C438.291 177.256 437.252 178.071 437.114 179.211L434.624 199.881C434.487 201.02 435.303 202.055 436.447 202.19C437.59 202.326 438.629 201.51 438.766 200.371Z" stroke="#151254" stroke-width="2.26737" stroke-linecap="round" stroke-linejoin="round"/>
<path d="M451.006 192.061L451.177 190.639C451.865 184.941 447.789 179.781 442.065 179.105L441.352 179.021L438.693 201.062L439.407 201.147C445.13 201.823 450.319 197.759 451.006 192.061Z" stroke="#151254" stroke-width="2.26737" stroke-linecap="round" stroke-linejoin="round"/>
<path d="M436.869 178.34C436.24 178.796 435.428 179.081 435.31 180.06C435.192 181.038 435.913 181.504 436.415 182.094" stroke="#151254" stroke-width="2.26737" stroke-linecap="round" stroke-linejoin="round"/>
<path d="M435.357 190.925C434.729 191.381 433.916 191.666 433.798 192.645C433.678 193.637 434.4 194.103 434.902 194.692" stroke="#151254" stroke-width="2.26737" stroke-linecap="round" stroke-linejoin="round"/>
<path d="M433.052 198.96C433.171 197.981 433.984 197.697 434.612 197.24" stroke="#151254" stroke-width="2.26737" stroke-linecap="round" stroke-linejoin="round"/>
<path d="M436.112 184.639C435.484 185.095 434.671 185.38 434.553 186.358C434.435 187.337 435.157 187.803 435.659 188.393" stroke="#151254" stroke-width="2.26737" stroke-linecap="round" stroke-linejoin="round"/>
</g>
<g opacity="0.25">
<path d="M308.769 148.025C306.225 145.159 305.412 140.991 307.032 137.246C309.268 132.075 315.315 129.679 320.516 131.903C325.143 133.881 327.559 138.852 326.459 143.583C323.588 142.532 320.396 143.592 318.726 146.052C318.411 145.858 318.078 145.672 317.728 145.522C314.461 144.125 310.737 145.251 308.769 148.025Z" stroke="#151254" stroke-width="2.26737" stroke-linecap="round" stroke-linejoin="round"/>
<path d="M323.276 139.592C323.604 138.835 323.25 137.948 322.49 137.624C321.73 137.299 320.839 137.654 320.511 138.411C320.182 139.169 320.536 140.055 321.296 140.38C322.069 140.709 322.948 140.349 323.276 139.592Z" fill="#201D67"/>
<path d="M331.812 139.641C332.14 138.883 331.786 137.997 331.026 137.672C330.266 137.348 329.374 137.703 329.046 138.46C328.718 139.218 329.072 140.104 329.832 140.429C330.61 140.746 331.484 140.398 331.812 139.641Z" fill="#201D67"/>
<path d="M317.291 141.778C317.619 141.021 317.265 140.135 316.505 139.81C315.746 139.486 314.854 139.841 314.526 140.598C314.198 141.355 314.552 142.242 315.311 142.566C316.084 142.896 316.963 142.536 317.291 141.778Z" fill="#201D67"/>
<path d="M311.228 140.599C311.228 140.599 311.191 140.274 311.136 139.854C311.088 139.452 311.044 139.11 311.044 139.11C311.044 139.11 311.081 139.434 311.136 139.854C311.196 140.262 311.228 140.599 311.228 140.599Z" stroke="#151254" stroke-width="2.26737" stroke-linecap="round" stroke-linejoin="round"/>
<path d="M317.537 135.815C317.537 135.815 317.289 136.047 316.989 136.331C316.689 136.614 316.441 136.846 316.441 136.846C316.441 136.846 316.689 136.614 316.989 136.331C317.289 136.047 317.537 135.815 317.537 135.815Z" stroke="#151254" stroke-width="2.26737" stroke-linecap="round" stroke-linejoin="round"/>
<path d="M328.042 133.021C328.042 133.021 328.157 133.334 328.301 133.719C328.445 134.104 328.561 134.418 328.561 134.418C328.561 134.418 328.445 134.104 328.301 133.719C328.157 133.334 328.042 133.021 328.042 133.021Z" stroke="#151254" stroke-width="2.26737" stroke-linecap="round" stroke-linejoin="round"/>
<path d="M321.637 128.797C323.667 128.136 325.926 128.176 328.033 129.077C332.636 131.045 334.761 136.347 332.782 140.923C331.184 144.618 327.395 146.716 323.566 146.343" stroke="#151254" stroke-width="2.26737" stroke-linecap="round" stroke-linejoin="round"/>
<path d="M207.61 106.908L211.584 97.7285L210.267 97.1659L206.293 106.345L207.61 106.908Z" stroke="#151254" stroke-width="2.26737" stroke-linecap="round" stroke-linejoin="round"/>
<path d="M215.74 116.973C215.374 117.817 214.298 118.123 213.563 117.574C209.014 114.088 207.237 107.845 209.624 102.334C212.012 96.824 217.8 93.8093 223.478 94.6888C224.391 94.8283 224.908 95.8135 224.537 96.6699L215.74 116.973V116.973Z" stroke="#151254" stroke-width="2.26737" stroke-linecap="round" stroke-linejoin="round"/>
<path d="M222.294 101.888C221.667 103.335 222.335 105.011 223.786 105.63C225.238 106.249 226.922 105.578 227.55 104.131C228.177 102.684 227.509 101.009 226.057 100.389C224.606 99.7701 222.921 100.441 222.294 101.888Z" stroke="#151254" stroke-width="2.26737" stroke-linecap="round" stroke-linejoin="round"/>
<path d="M218.213 111.869C217.586 113.316 218.254 114.991 219.705 115.61C221.156 116.23 222.841 115.559 223.468 114.111C224.096 112.664 223.428 110.989 221.976 110.37C220.525 109.751 218.84 110.422 218.213 111.869Z" stroke="#151254" stroke-width="2.26737" stroke-linecap="round" stroke-linejoin="round"/>
<path d="M220.162 107.325C219.69 108.415 220.193 109.677 221.287 110.144C222.381 110.611 223.65 110.105 224.123 109.015C224.595 107.924 224.092 106.662 222.998 106.195C221.905 105.728 220.635 106.234 220.162 107.325Z" stroke="#151254" stroke-width="2.26737" stroke-linecap="round" stroke-linejoin="round"/>
<path d="M227.996 102.639L233.917 100.282" stroke="#151254" stroke-width="2.26737" stroke-linecap="round" stroke-linejoin="round"/>
<path d="M220.47 95.3291L211.974 114.971" stroke="#151254" stroke-width="2.26737" stroke-linecap="round" stroke-linejoin="round"/>
<path d="M292.119 80.3004L301.784 57.9736C299.72 57.0917 297.334 58.0419 296.442 60.1009L289.999 74.9854C289.108 77.0444 290.055 79.4184 292.119 80.3004Z" stroke="#151254" stroke-width="2.26737" stroke-linecap="round" stroke-linejoin="round"/>
<path d="M308.171 73.9319C310.547 68.4467 308.014 62.1009 302.511 59.7514L301.266 59.2199L292.665 79.0759L293.91 79.6075C299.414 81.957 305.795 79.4172 308.171 73.9319Z" stroke="#151254" stroke-width="2.26737" stroke-linecap="round" stroke-linejoin="round"/>
<path d="M307.249 73.5429C306.729 74.7428 307.283 76.1322 308.487 76.6462C309.691 77.1601 311.089 76.604 311.609 75.4041C312.128 74.2042 311.574 72.8148 310.37 72.3008C309.166 71.7869 307.768 72.3429 307.249 73.5429Z" fill="#201D67"/>
<path d="M348.031 -1.27344C346.334 2.07083 343.339 4.86051 339.395 6.39237C335.488 7.9101 331.357 7.89262 327.768 6.62271" stroke="#151254" stroke-width="2.26737" stroke-linecap="round" stroke-linejoin="round"/>
<path d="M326.346 7.68908L326.632 6.00386L329.521 -11.0983C329.911 -13.4003 332.57 -14.4232 334.465 -12.9959L338.483 -9.98491L338.738 -9.78786L342.229 -7.16392L342.565 -6.91713L348.416 -2.50548L349.841 -1.42608C351.214 -0.398159 351.561 1.49878 350.657 2.90498C348.437 6.36382 345.203 9.12484 341.153 10.6991C337.133 12.2716 332.854 12.4259 328.812 11.4178C327.159 11.0045 326.066 9.36192 326.346 7.68908Z" stroke="#151254" stroke-width="2.26737" stroke-linecap="round" stroke-linejoin="round"/>
<path d="M334.382 0.0463601C333.908 1.14213 334.428 2.41721 335.544 2.89432C336.66 3.37143 337.949 2.86989 338.423 1.77412C338.897 0.678346 338.376 -0.596733 337.26 -1.07384C336.144 -1.55095 334.856 -1.04941 334.382 0.0463601Z" stroke="#151254" stroke-width="2.26737" stroke-linecap="round" stroke-linejoin="round"/>
<path d="M254.593 193.911C253.474 190.509 253.6 186.579 255.231 182.88C256.851 179.207 259.662 176.423 262.959 174.862" stroke="#151254" stroke-width="2.26737" stroke-linecap="round" stroke-linejoin="round"/>
<path d="M257.579 173.263C254.802 175.243 252.551 177.917 251.116 181.16C249.439 184.962 249.125 189.023 249.967 192.869C250.309 194.428 251.845 195.481 253.474 195.264L255.181 195.036L262.158 194.054C262.158 194.054 267.122 193.361 271.802 192.709C274.063 192.394 275.175 189.896 273.87 188.073L264.189 174.524L263.233 173.189C262.284 171.872 260.427 171.492 259.028 172.337C258.526 172.608 258.046 172.933 257.579 173.263Z" stroke="#151254" stroke-width="2.26737" stroke-linecap="round" stroke-linejoin="round"/>
<path d="M263.224 181.051C263.478 180.806 263.623 180.471 263.628 180.12C263.636 179.932 263.602 179.77 263.544 179.598C263.404 179.274 263.152 179.004 262.829 178.866C262.492 178.723 262.14 178.719 261.801 178.854C261.462 178.989 261.208 179.234 261.063 179.57C260.917 179.905 260.913 180.256 261.047 180.593C261.182 180.93 261.439 181.187 261.763 181.325C262.087 181.463 262.457 181.46 262.791 181.337C262.964 181.278 263.11 181.179 263.224 181.051Z" fill="#201D67"/>
<path d="M259.888 185.414C260.142 185.169 260.287 184.833 260.292 184.482C260.294 184.306 260.267 184.133 260.208 183.961C260.069 183.636 259.816 183.367 259.493 183.229C259.156 183.085 258.804 183.082 258.465 183.217C258.126 183.352 257.872 183.597 257.727 183.932C257.582 184.267 257.577 184.619 257.711 184.955C257.846 185.292 258.091 185.544 258.427 185.688C258.751 185.826 259.121 185.822 259.455 185.699C259.615 185.635 259.756 185.548 259.888 185.414Z" fill="#201D67"/>
<path d="M258.566 191.14C259.226 190.877 259.581 190.057 259.32 189.401C259.18 189.077 258.928 188.807 258.604 188.669C258.268 188.526 257.915 188.522 257.576 188.657C257.237 188.792 256.984 189.037 256.838 189.372C256.768 189.534 256.736 189.711 256.739 189.875C256.736 190.05 256.764 190.224 256.823 190.396C256.957 190.733 257.202 190.985 257.538 191.128C257.855 191.248 258.238 191.25 258.566 191.14Z" fill="#201D67"/>
<path d="M264.031 190.875C264.22 190.882 264.382 190.848 264.555 190.789C265.215 190.526 265.57 189.707 265.308 189.051C265.232 188.886 265.145 188.746 265.01 188.614C264.888 188.489 264.742 188.382 264.593 188.318C264.431 188.249 264.253 188.218 264.089 188.221C263.913 188.22 263.738 188.248 263.565 188.307C263.226 188.442 262.972 188.687 262.827 189.022C262.757 189.183 262.724 189.361 262.728 189.524C262.725 189.7 262.753 189.873 262.811 190.045C262.946 190.382 263.191 190.634 263.527 190.777C263.676 190.841 263.855 190.873 264.031 190.875Z" fill="#201D67"/>
<path d="M266.15 185.976C266.326 185.978 266.501 185.949 266.674 185.891C267.339 185.616 267.694 184.796 267.427 184.152C267.351 183.987 267.264 183.847 267.129 183.716C267.007 183.59 266.861 183.484 266.711 183.42C266.375 183.277 266.022 183.273 265.684 183.408C265.518 183.485 265.371 183.584 265.245 183.706C265.118 183.829 265.01 183.974 264.94 184.136C264.795 184.471 264.79 184.822 264.925 185.159C265.001 185.324 265.1 185.47 265.223 185.595C265.34 185.734 265.491 185.828 265.64 185.891C265.795 185.943 265.968 185.987 266.15 185.976Z" fill="#201D67"/>
<path d="M269.536 187.965C269.197 188.1 268.943 188.345 268.798 188.68C268.728 188.841 268.695 189.019 268.698 189.182C268.696 189.357 268.724 189.531 268.782 189.703C268.858 189.868 268.958 190.014 269.08 190.139C269.203 190.265 269.349 190.372 269.498 190.435C269.834 190.579 270.192 190.57 270.526 190.447C271.013 190.243 271.369 189.762 271.369 189.218C271.376 189.029 271.343 188.868 271.285 188.696C271.145 188.372 270.893 188.102 270.569 187.964C270.407 187.895 270.229 187.863 270.065 187.867C269.884 187.877 269.709 187.906 269.536 187.965Z" fill="#201D67"/>
<path d="M116.149 86.8928C115.03 83.49 115.156 79.5603 116.787 75.8618C118.407 72.1881 121.218 69.4048 124.515 67.8438" stroke="#151254" stroke-width="2.26737" stroke-linecap="round" stroke-linejoin="round"/>
<path d="M119.134 66.2449C116.358 68.2242 114.107 70.8986 112.672 74.1418C110.994 77.9439 110.681 82.0041 111.522 85.8508C111.865 87.4097 113.4 88.4624 115.029 88.2451L116.737 88.017L123.714 87.0355C123.714 87.0355 128.677 86.3426 133.357 85.6906C135.618 85.3753 136.73 82.8773 135.425 81.0546L125.744 67.5056L124.788 66.1705C123.839 64.8532 121.982 64.473 120.583 65.3181C120.082 65.5898 119.601 65.9147 119.134 66.2449Z" stroke="#151254" stroke-width="2.26737" stroke-linecap="round" stroke-linejoin="round"/>
<path d="M124.78 74.0346C125.033 73.7897 125.179 73.4544 125.183 73.1032C125.191 72.9152 125.158 72.7538 125.099 72.5818C124.96 72.2573 124.708 71.9878 124.384 71.8496C124.047 71.7062 123.695 71.7029 123.356 71.8379C123.017 71.9729 122.763 72.2178 122.618 72.5531C122.473 72.8884 122.468 73.2396 122.602 73.5765C122.737 73.9135 122.994 74.1705 123.318 74.3087C123.642 74.4468 124.012 74.443 124.346 74.3205C124.519 74.2618 124.665 74.1624 124.78 74.0346Z" fill="#201D67"/>
<path d="M121.444 78.3979C121.698 78.153 121.843 77.8177 121.848 77.4665C121.85 77.2909 121.822 77.1171 121.764 76.945C121.624 76.6205 121.372 76.3511 121.048 76.2129C120.712 76.0695 120.359 76.0661 120.02 76.2011C119.682 76.3361 119.428 76.5811 119.283 76.9164C119.137 77.2517 119.133 77.6029 119.267 77.9398C119.401 78.2767 119.646 78.5285 119.983 78.6719C120.306 78.8101 120.677 78.8063 121.01 78.6837C121.171 78.6198 121.312 78.5328 121.444 78.3979Z" fill="#201D67"/>
<path d="M120.121 84.1232C120.781 83.8603 121.136 83.0407 120.874 82.3846C120.735 82.0601 120.482 81.7906 120.159 81.6525C119.822 81.509 119.47 81.5056 119.131 81.6406C118.792 81.7757 118.538 82.0206 118.393 82.3559C118.323 82.5173 118.29 82.6947 118.293 82.8579C118.291 83.0335 118.319 83.2073 118.377 83.3793C118.512 83.7163 118.757 83.968 119.093 84.1115C119.41 84.2319 119.793 84.2334 120.121 84.1232Z" fill="#201D67"/>
<path d="M125.585 83.8591C125.773 83.8661 125.936 83.8323 126.109 83.7737C126.768 83.5108 127.124 82.6911 126.862 82.035C126.786 81.8701 126.699 81.73 126.564 81.5988C126.442 81.473 126.296 81.3666 126.146 81.3028C125.985 81.2338 125.807 81.202 125.643 81.2056C125.466 81.2039 125.292 81.2324 125.119 81.2911C124.78 81.4261 124.526 81.671 124.381 82.0063C124.311 82.1678 124.278 82.3451 124.281 82.5083C124.279 82.6839 124.307 82.8577 124.365 83.0297C124.499 83.3667 124.745 83.6184 125.081 83.7619C125.23 83.8256 125.408 83.8575 125.585 83.8591Z" fill="#201D67"/>
<path d="M127.703 78.9616C127.879 78.9633 128.054 78.9348 128.227 78.8762C128.892 78.6009 129.247 77.7812 128.98 77.1375C128.904 76.9726 128.817 76.8325 128.682 76.7014C128.56 76.5755 128.414 76.4692 128.265 76.4054C127.928 76.2619 127.576 76.2586 127.237 76.3936C127.071 76.47 126.925 76.5694 126.798 76.6918C126.671 76.8143 126.564 76.9598 126.494 77.1213C126.348 77.4566 126.344 77.8078 126.478 78.1447C126.554 78.3096 126.653 78.455 126.776 78.5808C126.893 78.7191 127.044 78.813 127.194 78.8768C127.348 78.9281 127.521 78.9724 127.703 78.9616Z" fill="#201D67"/>
<path d="M131.09 80.948C130.751 81.083 130.498 81.3279 130.352 81.6632C130.282 81.8247 130.25 82.0021 130.253 82.1652C130.25 82.3408 130.278 82.5147 130.337 82.6867C130.413 82.8516 130.512 82.997 130.635 83.1228C130.757 83.2487 130.903 83.355 131.052 83.4188C131.388 83.5623 131.747 83.5532 132.08 83.4306C132.567 83.2263 132.923 82.7454 132.923 82.2009C132.931 82.0129 132.897 81.8515 132.839 81.6795C132.699 81.355 132.447 81.0855 132.123 80.9474C131.961 80.8783 131.783 80.8465 131.619 80.8501C131.438 80.8609 131.263 80.8894 131.09 80.948Z" fill="#201D67"/>
<path d="M212.286 36.2442C209.742 33.3786 208.929 29.2107 210.549 25.4657C212.785 20.2947 218.831 17.8987 224.032 20.1224C228.659 22.1008 231.076 27.0719 229.975 31.8029C227.105 30.7519 223.913 31.8115 222.243 34.2713C221.927 34.0778 221.594 33.8912 221.245 33.7419C217.977 32.3448 214.254 33.471 212.286 36.2442Z" stroke="#151254" stroke-width="2.26737" stroke-linecap="round" stroke-linejoin="round"/>
<path d="M226.794 27.8117C227.122 27.0544 226.768 26.1677 226.008 25.8433C225.248 25.5189 224.357 25.8738 224.029 26.6312C223.701 27.3885 224.054 28.2751 224.814 28.5995C225.587 28.9292 226.466 28.569 226.794 27.8117Z" fill="#201D67"/>
<path d="M235.33 27.8605C235.658 27.1032 235.304 26.2165 234.544 25.8921C233.784 25.5678 232.892 25.9226 232.564 26.6799C232.236 27.4373 232.59 28.3239 233.35 28.6483C234.128 28.9656 235.002 28.6178 235.33 27.8605Z" fill="#201D67"/>
<path d="M220.808 29.9982C221.136 29.2409 220.782 28.3542 220.023 28.0298C219.263 27.7055 218.371 28.0603 218.043 28.8176C217.715 29.575 218.069 30.4616 218.829 30.786C219.601 31.1157 220.48 30.7555 220.808 29.9982Z" fill="#201D67"/>
<path d="M214.745 28.8174C214.745 28.8174 214.708 28.493 214.653 28.0729C214.605 27.6705 214.561 27.3283 214.561 27.3283C214.561 27.3283 214.598 27.6527 214.653 28.0729C214.713 28.4806 214.745 28.8174 214.745 28.8174Z" stroke="#151254" stroke-width="2.26737" stroke-linecap="round" stroke-linejoin="round"/>
<path d="M221.054 24.0371C221.054 24.0371 220.806 24.269 220.506 24.5522C220.206 24.8354 219.958 25.0673 219.958 25.0673C219.958 25.0673 220.206 24.8354 220.506 24.5522C220.806 24.269 221.054 24.0371 221.054 24.0371Z" stroke="#151254" stroke-width="2.26737" stroke-linecap="round" stroke-linejoin="round"/>
<path d="M231.559 21.2393C231.559 21.2393 231.674 21.5531 231.818 21.9379C231.962 22.3227 232.078 22.6366 232.078 22.6366C232.078 22.6366 231.962 22.3227 231.818 21.9379C231.674 21.5531 231.559 21.2393 231.559 21.2393Z" stroke="#151254" stroke-width="2.26737" stroke-linecap="round" stroke-linejoin="round"/>
<path d="M225.154 17.0174C227.184 16.357 229.442 16.397 231.55 17.2982C236.152 19.2659 238.278 24.5681 236.299 29.1438C234.7 32.8392 230.911 34.9366 227.083 34.5633" stroke="#151254" stroke-width="2.26737" stroke-linecap="round" stroke-linejoin="round"/>
<path d="M197.481 224.388C198.004 223.666 198.338 222.826 198.452 221.944C198.566 221.062 198.457 220.167 198.134 219.34C197.985 218.984 197.703 218.7 197.348 218.549C196.992 218.397 196.591 218.389 196.229 218.527L194.146 219.315" stroke="#151254" stroke-width="2.26737" stroke-linecap="round" stroke-linejoin="round"/>
<path d="M184.014 229.591C183.13 229.416 182.305 229.024 181.613 228.451C180.921 227.879 180.383 227.143 180.05 226.31C179.978 226.133 179.943 225.944 179.945 225.753C179.948 225.562 179.988 225.373 180.064 225.198C180.14 225.022 180.25 224.863 180.388 224.73C180.526 224.597 180.689 224.492 180.868 224.422L182.962 223.608" stroke="#151254" stroke-width="2.26737" stroke-linecap="round" stroke-linejoin="round"/>
<path d="M185.539 216.802C184.505 216.967 183.446 216.837 182.485 216.426C181.837 216.149 181.25 215.746 180.76 215.241C180.27 214.736 179.885 214.139 179.628 213.485C179.587 213.364 179.592 213.233 179.643 213.116C179.694 212.999 179.786 212.904 179.903 212.851C180.491 212.621 181.118 212.504 181.749 212.506C182.229 212.467 182.711 212.504 183.178 212.615C183.455 212.7 183.722 212.814 183.975 212.955C185.089 213.695 185.925 214.781 186.354 216.046C185.828 214.819 185.715 213.455 186.033 212.156C186.122 211.881 186.238 211.615 186.377 211.361C186.651 210.963 186.983 210.609 187.364 210.31C187.85 209.884 188.413 209.555 189.024 209.341C189.145 209.3 189.277 209.304 189.394 209.354C189.511 209.405 189.606 209.496 189.659 209.612C190.167 210.93 190.136 212.396 189.571 213.695C189.152 214.646 188.468 215.457 187.599 216.032" stroke="#151254" stroke-width="2.26737" stroke-linecap="round" stroke-linejoin="round"/>
<path d="M194.977 237.695C195.209 237.62 195.432 237.517 195.64 237.389C196.188 237.017 196.656 236.541 197.018 235.988C197.379 235.434 197.626 234.815 197.745 234.167C198.138 232.682 198.262 231.14 198.11 229.613C197.992 226.815 197.068 224.112 195.45 221.827C193.753 219.689 191.588 217.965 189.12 216.786C188.945 216.711 187.729 215.942 187.583 216.042L185.566 216.815C185.391 216.843 184.968 218.193 184.955 218.394C183.929 220.942 183.511 223.69 183.734 226.422C184.084 229.188 185.24 231.788 187.058 233.904C188.863 235.969 191.949 238.757 194.977 237.695Z" stroke="#151254" stroke-width="2.26737" stroke-linecap="round" stroke-linejoin="round"/>
<path d="M197.284 228.436C195.366 228.214 193.422 228.46 191.617 229.152C189.813 229.851 188.209 230.98 186.945 232.442" stroke="#151254" stroke-width="2.26737" stroke-linecap="round" stroke-linejoin="round"/>
<path d="M194.928 233.786C195.099 233.722 195.255 233.624 195.387 233.498C195.519 233.372 195.624 233.221 195.697 233.054C195.769 232.887 195.807 232.708 195.808 232.526C195.809 232.345 195.773 232.165 195.703 231.998C195.6 231.753 195.428 231.545 195.207 231.398C194.986 231.251 194.726 231.173 194.46 231.172C194.193 231.172 193.933 231.249 193.71 231.395C193.487 231.54 193.312 231.748 193.206 231.992C193.1 232.235 193.069 232.504 193.116 232.765C193.162 233.026 193.285 233.267 193.469 233.458C193.652 233.649 193.889 233.783 194.148 233.841C194.408 233.899 194.679 233.88 194.928 233.786Z" fill="#201D67"/>
<path d="M72.3239 124.69C72.8472 123.968 73.1812 123.128 73.2953 122.246C73.4094 121.364 73.3001 120.469 72.9772 119.641C72.8286 119.286 72.5467 119.002 72.1912 118.85C71.8356 118.699 71.4343 118.691 71.0719 118.828L68.9889 119.617" stroke="#151254" stroke-width="2.26737" stroke-linecap="round" stroke-linejoin="round"/>
<path d="M58.857 129.892C57.9733 129.718 57.1481 129.326 56.456 128.753C55.7638 128.18 55.2266 127.444 54.8928 126.612C54.8213 126.435 54.7858 126.245 54.7883 126.054C54.7908 125.863 54.8312 125.675 54.9073 125.499C54.9834 125.324 55.0936 125.165 55.2315 125.032C55.3694 124.899 55.5324 124.794 55.7109 124.724L57.8048 123.91" stroke="#151254" stroke-width="2.26737" stroke-linecap="round" stroke-linejoin="round"/>
<path d="M60.3827 117.103C59.3484 117.269 58.2893 117.139 57.3287 116.727C56.6802 116.45 56.0937 116.048 55.6033 115.543C55.1129 115.038 54.7282 114.441 54.4715 113.786C54.4304 113.666 54.4357 113.535 54.4864 113.418C54.5371 113.301 54.6297 113.206 54.746 113.153C55.3345 112.923 55.9611 112.806 56.5926 112.808C57.0718 112.769 57.5539 112.806 58.021 112.917C58.2982 113.002 58.5654 113.116 58.818 113.257C59.9322 113.997 60.7685 115.083 61.1973 116.347C60.6713 115.121 60.5587 113.756 60.8762 112.458C60.9655 112.183 61.0809 111.916 61.2207 111.663C61.4939 111.265 61.8266 110.91 62.2072 110.612C62.6932 110.186 63.2567 109.857 63.8669 109.643C63.988 109.601 64.12 109.606 64.2374 109.656C64.3547 109.706 64.4491 109.798 64.502 109.914C65.0104 111.232 64.9791 112.698 64.4146 113.997C63.9954 114.947 63.3108 115.759 62.4425 116.334" stroke="#151254" stroke-width="2.26737" stroke-linecap="round" stroke-linejoin="round"/>
<path d="M69.8199 137.996C70.0525 137.921 70.2753 137.819 70.4835 137.691C71.0313 137.319 71.4996 136.843 71.861 136.29C72.2224 135.736 72.4697 135.117 72.5884 134.469C72.9815 132.984 73.1051 131.441 72.9533 129.915C72.8352 127.117 71.9118 124.414 70.2928 122.128C68.596 119.99 66.4315 118.267 63.9631 117.088C63.7888 117.013 62.5727 116.244 62.4263 116.344L60.4092 117.116C60.2345 117.145 59.8117 118.495 59.7986 118.695C58.7725 121.243 58.3542 123.992 58.5768 126.724C58.9275 129.49 60.0829 132.09 61.9009 134.205C63.7062 136.271 66.7919 139.059 69.8199 137.996Z" stroke="#151254" stroke-width="2.26737" stroke-linecap="round" stroke-linejoin="round"/>
<path d="M72.1284 128.735C70.2107 128.514 68.2659 128.76 66.4613 129.452C64.6576 130.15 63.0529 131.28 61.7893 132.741" stroke="#151254" stroke-width="2.26737" stroke-linecap="round" stroke-linejoin="round"/>
<path d="M69.7713 134.088C69.942 134.023 70.098 133.925 70.2301 133.8C70.3622 133.674 70.4675 133.523 70.5399 133.356C70.6122 133.189 70.6501 133.01 70.6512 132.828C70.6523 132.646 70.6166 132.467 70.5463 132.299C70.4437 132.055 70.271 131.847 70.0499 131.7C69.8288 131.553 69.569 131.475 69.3028 131.474C69.0366 131.473 68.7758 131.551 68.5529 131.696C68.33 131.842 68.1549 132.05 68.0492 132.293C67.9436 132.537 67.9122 132.806 67.959 133.067C68.0057 133.328 68.1285 133.569 68.3121 133.76C68.4956 133.951 68.7319 134.084 68.9913 134.143C69.2508 134.201 69.522 134.182 69.7713 134.088Z" fill="#201D67"/>
<path d="M18.1084 194.665L1.80645 193.759L13.6828 204.877" stroke="#151254" stroke-width="2.26737" stroke-linecap="round" stroke-linejoin="round"/>
<path d="M13.2264 207.702C13.3177 207.492 13.3858 207.3 13.4361 207.116C13.8031 205.656 12.8654 205.035 13.6062 203.324C14.4382 201.401 15.7172 201.948 16.5385 200.05C17.3706 198.128 16.0916 197.581 16.9129 195.683C17.6537 193.972 18.7346 194.228 19.5664 192.952C19.661 192.801 19.7593 192.608 19.8506 192.397" stroke="#151254" stroke-width="2.26737" stroke-linecap="round" stroke-linejoin="round"/>
<path d="M15.6984 207.258C15.0262 206.971 14.3971 206.585 13.8786 206.113C14.1658 204.838 13.2096 204.254 13.8446 202.789C14.5604 201.137 15.8425 201.684 16.5475 200.058C17.2632 198.406 15.9811 197.859 16.686 196.233C17.321 194.768 18.3993 195.036 19.1417 193.97C19.8377 194.032 20.5584 194.207 21.2306 194.494C24.7658 196.002 26.3912 200.079 24.8628 203.606C23.3345 207.132 19.2337 208.766 15.6984 207.258Z" stroke="#151254" stroke-width="2.26737" stroke-linecap="round" stroke-linejoin="round"/>
<path d="M11.8629 205.604L17.3765 192.856" stroke="#151254" stroke-width="2.26737" stroke-linecap="round" stroke-linejoin="round"/>
<path d="M127.793 2.24834L131.767 -6.93066L130.449 -7.49328L126.476 1.68572L127.793 2.24834Z" stroke="#151254" stroke-width="2.26737" stroke-linecap="round" stroke-linejoin="round"/>
<path d="M135.921 12.3143C135.556 13.1582 134.48 13.4637 133.745 12.9146C129.195 9.42889 127.419 3.18536 129.806 -2.32491C132.194 -7.83519 137.982 -10.8499 143.66 -9.9704C144.573 -9.83088 145.089 -8.84565 144.718 -7.98932L135.921 12.3143V12.3143Z" stroke="#151254" stroke-width="2.26737" stroke-linecap="round" stroke-linejoin="round"/>
<path d="M142.477 -2.77183C141.85 -1.32468 142.518 0.350505 143.969 0.969821C145.421 1.58914 147.106 0.91806 147.733 -0.529093C148.36 -1.97625 147.692 -3.65147 146.24 -4.27078C144.789 -4.8901 143.104 -4.21898 142.477 -2.77183Z" stroke="#151254" stroke-width="2.26737" stroke-linecap="round" stroke-linejoin="round"/>
<path d="M138.396 7.2086C137.769 8.65575 138.437 10.331 139.888 10.9503C141.34 11.5696 143.024 10.8985 143.652 9.45134C144.279 8.00419 143.611 6.329 142.159 5.70969C140.708 5.09037 139.023 5.76145 138.396 7.2086Z" stroke="#151254" stroke-width="2.26737" stroke-linecap="round" stroke-linejoin="round"/>
<path d="M140.346 2.66342C139.873 3.75392 140.377 5.01631 141.471 5.483C142.564 5.94969 143.834 5.44395 144.306 4.35344C144.779 3.26293 144.276 2.00058 143.182 1.53389C142.088 1.06721 140.819 1.57291 140.346 2.66342Z" stroke="#151254" stroke-width="2.26737" stroke-linecap="round" stroke-linejoin="round"/>
<path d="M148.178 -2.02161L154.099 -4.37793" stroke="#151254" stroke-width="2.26737" stroke-linecap="round" stroke-linejoin="round"/>
<path d="M140.651 -9.3291L132.156 10.3132" stroke="#151254" stroke-width="2.26737" stroke-linecap="round" stroke-linejoin="round"/>
<path d="M133.447 257.432C131.75 260.776 128.755 263.566 124.811 265.097C120.904 266.615 116.773 266.598 113.184 265.328" stroke="#151254" stroke-width="2.26737" stroke-linecap="round" stroke-linejoin="round"/>
<path d="M111.763 266.394L112.048 264.709L114.938 247.607C115.327 245.305 117.987 244.282 119.882 245.709L123.9 248.72L124.154 248.917L127.645 251.541L127.982 251.788L133.833 256.2L135.257 257.279C136.63 258.307 136.978 260.204 136.074 261.61C133.854 265.069 130.62 267.83 126.57 269.404C122.549 270.977 118.271 271.131 114.229 270.123C112.575 269.71 111.483 268.067 111.763 266.394Z" stroke="#151254" stroke-width="2.26737" stroke-linecap="round" stroke-linejoin="round"/>
<path d="M123.733 251.736C123.33 250.755 123.529 249.68 124.179 248.929L128.731 252.345C128.415 252.768 127.998 253.118 127.463 253.33C125.988 253.904 124.316 253.19 123.733 251.736Z" stroke="#151254" stroke-width="2.26737" stroke-linecap="round" stroke-linejoin="round"/>
<path d="M115.949 250.258C116.752 250.381 117.47 250.909 117.795 251.694C118.284 252.888 117.705 254.227 116.497 254.695C116.105 254.851 115.688 254.893 115.289 254.825" stroke="#151254" stroke-width="2.26737" stroke-linecap="round" stroke-linejoin="round"/>
<path d="M95.1014 200.158L87.8526 181.999C87.081 180.066 84.8885 179.13 82.9444 179.904C81.0003 180.677 80.0537 182.863 80.8254 184.795L88.0742 202.954C88.8458 204.887 91.0383 205.823 92.9824 205.049C94.9265 204.276 95.873 202.091 95.1014 200.158Z" stroke="#151254" stroke-width="2.26737" stroke-linecap="round" stroke-linejoin="round"/>
<path d="M85.0044 183.946C85.8388 186.038 85.0897 186.337 85.9187 188.442C86.753 190.534 87.5021 190.236 88.3489 192.334C89.1833 194.426 88.4288 194.737 89.2631 196.829C90.0975 198.922 90.859 198.629 91.6934 200.721" stroke="#151254" stroke-width="2.26737" stroke-linecap="round" stroke-linejoin="round"/>
<path d="M98.4745 196.398L92.8962 182.425C91.9689 180.102 89.3404 178.979 87.0039 179.909L95.9234 202.253C98.267 201.341 99.4072 198.709 98.4745 196.398Z" stroke="#151254" stroke-width="2.26737" stroke-linecap="round" stroke-linejoin="round"/>
<path d="M77.4505 188.557L83.0288 202.53C83.9561 204.853 86.5846 205.975 88.9211 205.046L80.0016 182.702C77.658 183.614 76.5178 186.246 77.4505 188.557Z" stroke="#151254" stroke-width="2.26737" stroke-linecap="round" stroke-linejoin="round"/>
<path d="M275.471 265.004L280.843 252.597C281.8 250.389 284.365 249.368 286.58 250.314L288.969 251.334L280.137 271.73L277.748 270.71C275.533 269.764 274.515 267.212 275.471 265.004Z" stroke="#151254" stroke-width="2.26737" stroke-linecap="round" stroke-linejoin="round"/>
<path d="M284.257 272.741L292.536 253.614C292.993 252.56 292.505 251.338 291.448 250.886C290.391 250.434 289.162 250.924 288.706 251.978L280.426 271.104C279.97 272.159 280.458 273.381 281.515 273.833C282.572 274.284 283.8 273.795 284.257 272.741Z" stroke="#151254" stroke-width="2.26737" stroke-linecap="round" stroke-linejoin="round"/>
<path d="M288.718 251.073C287.986 251.334 287.126 251.379 286.734 252.284C286.341 253.19 286.9 253.84 287.213 254.547" stroke="#151254" stroke-width="2.26737" stroke-linecap="round" stroke-linejoin="round"/>
<path d="M139.411 152.468L144.784 140.061C145.74 137.853 148.306 136.832 150.521 137.778L152.91 138.798L144.077 159.194L141.688 158.173C139.473 157.228 138.455 154.676 139.411 152.468Z" stroke="#151254" stroke-width="2.26737" stroke-linecap="round" stroke-linejoin="round"/>
<path d="M148.198 160.204L156.477 141.077C156.934 140.023 156.446 138.8 155.389 138.349C154.332 137.897 153.103 138.386 152.647 139.441L144.367 158.567C143.911 159.622 144.399 160.844 145.456 161.296C146.513 161.747 147.741 161.258 148.198 160.204Z" stroke="#151254" stroke-width="2.26737" stroke-linecap="round" stroke-linejoin="round"/>
<path d="M162.301 155.677L162.871 154.362C165.155 149.088 162.721 142.991 157.43 140.732L156.771 140.45L147.934 160.851L148.594 161.133C153.885 163.392 160.017 160.951 162.301 155.677Z" stroke="#151254" stroke-width="2.26737" stroke-linecap="round" stroke-linejoin="round"/>
<path d="M152.658 138.536C151.926 138.797 151.066 138.841 150.674 139.747C150.281 140.653 150.84 141.303 151.153 142.01" stroke="#151254" stroke-width="2.26737" stroke-linecap="round" stroke-linejoin="round"/>
<path d="M147.622 150.18C146.889 150.44 146.03 150.485 145.637 151.391C145.24 152.309 145.799 152.959 146.112 153.666" stroke="#151254" stroke-width="2.26737" stroke-linecap="round" stroke-linejoin="round"/>
<path d="M143.122 157.239C143.514 156.333 144.375 156.288 145.107 156.027" stroke="#151254" stroke-width="2.26737" stroke-linecap="round" stroke-linejoin="round"/>
<path d="M150.137 144.364C149.405 144.625 148.545 144.67 148.153 145.575C147.761 146.481 148.32 147.131 148.633 147.838" stroke="#151254" stroke-width="2.26737" stroke-linecap="round" stroke-linejoin="round"/>
</g>
<g opacity="0.25">
<path d="M22.8116 7.2039C22.1584 3.68082 22.81 -0.197985 24.9234 -3.64602C27.0227 -7.0709 30.1831 -9.45364 33.6626 -10.5596" stroke="#151254" stroke-width="2.26737" stroke-linecap="round" stroke-linejoin="round"/>
<path d="M28.5387 -12.866C25.5223 -11.2758 22.9332 -8.92652 21.0763 -5.90437C18.9045 -2.36077 18.0495 1.62109 18.3677 5.54584C18.4982 7.13658 19.879 8.38527 21.5223 8.38775L23.2447 8.39013L30.2903 8.35079C30.2903 8.35079 35.3016 8.32801 40.0266 8.30793C42.3099 8.29799 43.7469 5.9711 42.6975 3.99021L34.9203 -10.7323L34.1518 -12.1833C33.388 -13.6157 31.599 -14.2409 30.0991 -13.5905C29.5659 -13.3884 29.0464 -13.1306 28.5387 -12.866Z" stroke="#151254" stroke-width="2.26737" stroke-linecap="round" stroke-linejoin="round"/>
<path d="M29.2001 -0.513294C29.4843 -0.722082 29.6733 -1.03495 29.725 -1.38238C29.7508 -1.55609 29.7464 -1.73208 29.7117 -1.91034C29.6168 -2.25063 29.403 -2.5514 29.1007 -2.73163C28.7867 -2.91879 28.4377 -2.96929 28.0838 -2.88082C27.7299 -2.79236 27.4456 -2.58356 27.2566 -2.27069C27.0677 -1.95781 27.016 -1.6104 27.104 -1.25852C27.1919 -0.906645 27.401 -0.62441 27.715 -0.437247C28.0173 -0.257017 28.385 -0.211167 28.7319 -0.288041C28.8996 -0.329943 29.051 -0.397312 29.2001 -0.513294Z" fill="#201D67"/>
<path d="M27.1186 4.98471C27.8078 4.81244 28.2697 4.04766 28.0984 3.36243C28.0034 3.02214 27.7897 2.72139 27.4874 2.54116C27.1734 2.35399 26.8243 2.3035 26.4704 2.39196C26.1165 2.48042 25.8323 2.6892 25.6433 3.00207C25.5523 3.15271 25.4962 3.32416 25.4774 3.48628C25.4515 3.66 25.456 3.83598 25.4906 4.01424C25.5786 4.36612 25.7877 4.64837 26.1017 4.83553C26.3994 4.99724 26.7787 5.04999 27.1186 4.98471Z" fill="#201D67"/>
<path d="M32.5698 5.44953C32.756 5.4817 32.9213 5.46989 33.1005 5.43492C33.7897 5.26266 34.2516 4.49787 34.0803 3.81264C34.027 3.63903 33.9597 3.4886 33.8436 3.34054C33.739 3.19942 33.6088 3.07453 33.4693 2.99135C33.3181 2.90124 33.146 2.84589 32.9831 2.82758C32.8085 2.80233 32.6316 2.8072 32.4524 2.84217C32.0984 2.93063 31.8142 3.13942 31.6252 3.45229C31.5343 3.60293 31.4782 3.77437 31.4593 3.93649C31.4335 4.1102 31.4379 4.28619 31.4726 4.46445C31.5605 4.81633 31.7696 5.09858 32.0836 5.28574C32.2231 5.36893 32.3953 5.42428 32.5698 5.44953Z" fill="#201D67"/>
<path d="M35.3291 0.877238C35.5037 0.902482 35.6805 0.89762 35.8598 0.862649C36.556 0.678796 37.0179 -0.0859875 36.8396 -0.759627C36.7863 -0.933235 36.719 -1.08367 36.6028 -1.23172C36.4983 -1.37284 36.3681 -1.49773 36.2286 -1.58091C35.9146 -1.76807 35.5655 -1.81855 35.2116 -1.73009C35.037 -1.6766 34.8786 -1.59767 34.7365 -1.49327C34.5944 -1.38888 34.4685 -1.25903 34.3775 -1.10839C34.1886 -0.795523 34.1369 -0.448106 34.2249 -0.0962331C34.2782 0.0773757 34.3571 0.23475 34.4616 0.375872C34.5592 0.528581 34.6963 0.64187 34.8359 0.725053C34.9824 0.796648 35.1476 0.863581 35.3291 0.877238Z" fill="#201D67"/>
<path d="M38.4151 3.29854C38.0612 3.387 37.777 3.59578 37.588 3.90865C37.497 4.05929 37.4409 4.23073 37.4221 4.39285C37.3962 4.56656 37.4007 4.74256 37.4353 4.92082C37.4886 5.09443 37.5675 5.25181 37.6721 5.39293C37.7766 5.53405 37.9068 5.65893 38.0463 5.74211C38.3603 5.92928 38.7164 5.96816 39.0633 5.89129C39.5732 5.754 39.9904 5.32504 40.0633 4.78538C40.0962 4.60008 40.0848 4.43568 40.0501 4.25741C39.9551 3.91712 39.7414 3.61637 39.4391 3.43614C39.2879 3.34603 39.1157 3.29068 38.9528 3.27237C38.7713 3.25871 38.5944 3.26357 38.4151 3.29854Z" fill="#201D67"/>
<path d="M33.9219 80.4331L40.9137 68.8535C42.1582 66.7923 44.8385 66.1227 46.907 67.3561L49.1382 68.6865L37.6437 87.7234L35.4125 86.393C33.344 85.1596 32.6774 82.4943 33.9219 80.4331Z" stroke="#151254" stroke-width="2.26737" stroke-linecap="round" stroke-linejoin="round"/>
<path d="M41.5893 89.2732L52.367 71.4206C52.9611 70.4365 52.6418 69.1597 51.6544 68.5708C50.6669 67.9819 49.3831 68.3027 48.789 69.2868L38.0113 87.1393C37.4172 88.1234 37.7365 89.4003 38.724 89.9892C39.7114 90.5781 40.9952 90.2573 41.5893 89.2732Z" stroke="#151254" stroke-width="2.26737" stroke-linecap="round" stroke-linejoin="round"/>
<path d="M56.1738 86.6654L56.9151 85.4377C59.8876 80.5154 58.2947 74.1471 53.3543 71.2016L52.7382 70.8343L41.2402 89.8749L41.8563 90.2423C46.7967 93.1878 53.2014 91.5877 56.1738 86.6654Z" stroke="#151254" stroke-width="2.26737" stroke-linecap="round" stroke-linejoin="round"/>
<path d="M48.9248 68.3936C48.164 68.5542 47.3058 68.4835 46.7954 69.3288C46.2849 70.1742 46.7515 70.8934 46.9669 71.636" stroke="#151254" stroke-width="2.26737" stroke-linecap="round" stroke-linejoin="round"/>
<path d="M42.3657 79.2607C41.6049 79.4213 40.7467 79.3506 40.2363 80.196C39.7188 81.0529 40.1855 81.7722 40.4008 82.5148" stroke="#151254" stroke-width="2.26737" stroke-linecap="round" stroke-linejoin="round"/>
<path d="M36.9565 85.6543C37.4672 84.8087 38.3258 84.8794 39.0869 84.7188" stroke="#151254" stroke-width="2.26737" stroke-linecap="round" stroke-linejoin="round"/>
<path d="M45.6416 73.833C44.8808 73.9936 44.0226 73.9229 43.5122 74.7683C43.0017 75.6136 43.4683 76.3328 43.6837 77.0755" stroke="#151254" stroke-width="2.26737" stroke-linecap="round" stroke-linejoin="round"/>
</g>
<g opacity="0.25">
<path d="M735.248 88.3154L720.175 94.5585L735.769 99.4065" stroke="#151254" stroke-width="2.26737" stroke-linecap="round" stroke-linejoin="round"/>
<path d="M736.59 102.146C736.579 101.917 736.556 101.715 736.52 101.528C736.208 100.055 735.092 99.9034 735.005 98.0425C734.907 95.9524 736.296 95.8892 736.199 93.826C736.101 91.7359 734.712 91.799 734.615 89.7359C734.528 87.875 735.611 87.6365 735.797 86.128C735.816 85.9515 735.819 85.7351 735.809 85.5059" stroke="#151254" stroke-width="2.26737" stroke-linecap="round" stroke-linejoin="round"/>
<path d="M738.619 100.664C737.888 100.697 737.151 100.622 736.476 100.423C736.172 99.1522 735.053 99.0407 734.978 97.4487C734.894 95.6544 736.289 95.5912 736.206 93.8239C736.121 92.0296 734.726 92.0928 734.642 90.3255C734.567 88.7335 735.657 88.5084 735.854 87.2286C736.508 86.9827 737.234 86.8281 737.966 86.795C741.814 86.6207 745.076 89.5824 745.257 93.4139C745.438 97.2453 742.467 100.489 738.619 100.664Z" stroke="#151254" stroke-width="2.26737" stroke-linecap="round" stroke-linejoin="round"/>
<path d="M734.436 100.852L733.792 86.9902" stroke="#151254" stroke-width="2.26737" stroke-linecap="round" stroke-linejoin="round"/>
<path d="M739.904 231.08L739.437 221.101L738.003 221.166L738.47 231.145L739.904 231.08Z" stroke="#151254" stroke-width="2.26737" stroke-linecap="round" stroke-linejoin="round"/>
<path d="M751.657 236.598C751.7 237.515 750.866 238.256 749.961 238.081C744.327 236.918 739.972 232.075 739.691 226.087C739.41 220.098 743.293 214.88 748.794 213.211C749.678 212.941 750.578 213.603 750.622 214.533L751.657 236.598V236.598Z" stroke="#151254" stroke-width="2.26737" stroke-linecap="round" stroke-linejoin="round"/>
<path d="M750.897 220.182C750.97 221.754 752.311 222.97 753.89 222.898C755.47 222.826 756.691 221.494 756.617 219.922C756.543 218.35 755.203 217.133 753.623 217.205C752.044 217.277 750.823 218.61 750.897 220.182Z" stroke="#151254" stroke-width="2.26737" stroke-linecap="round" stroke-linejoin="round"/>
<path d="M751.613 230.932C751.687 232.504 753.027 233.72 754.607 233.648C756.187 233.576 757.408 232.244 757.334 230.672C757.26 229.1 755.92 227.883 754.34 227.955C752.76 228.027 751.54 229.36 751.613 230.932Z" stroke="#151254" stroke-width="2.26737" stroke-linecap="round" stroke-linejoin="round"/>
<path d="M751.37 225.999C751.426 227.184 752.436 228.1 753.626 228.046C754.816 227.992 755.736 226.988 755.681 225.803C755.625 224.619 754.615 223.702 753.425 223.756C752.234 223.81 751.314 224.815 751.37 225.999Z" stroke="#151254" stroke-width="2.26737" stroke-linecap="round" stroke-linejoin="round"/>
<path d="M756.358 218.378L760.65 213.694" stroke="#151254" stroke-width="2.26737" stroke-linecap="round" stroke-linejoin="round"/>
<path d="M746.377 215.079L747.37 236.438" stroke="#151254" stroke-width="2.26737" stroke-linecap="round" stroke-linejoin="round"/>
<path d="M648.849 252.816C646.342 250.241 644.722 246.653 644.56 242.619C644.4 238.613 645.703 234.891 647.984 232.058" stroke="#151254" stroke-width="2.26737" stroke-linecap="round" stroke-linejoin="round"/>
<path d="M642.422 232.953C640.796 235.934 639.949 239.312 640.088 242.848C640.255 246.99 641.764 250.775 644.218 253.867C645.215 255.12 647.062 255.401 648.432 254.5L649.869 253.556L655.717 249.653C655.717 249.653 659.879 246.882 663.805 244.27C665.702 243.007 665.601 240.281 663.622 239.208L648.929 231.224L647.479 230.439C646.044 229.666 644.204 230.128 643.318 231.493C642.986 231.954 642.697 232.454 642.422 232.953Z" stroke="#151254" stroke-width="2.26737" stroke-linecap="round" stroke-linejoin="round"/>
<path d="M650.95 237.504C651.071 237.174 651.054 236.81 650.903 236.492C650.827 236.32 650.726 236.19 650.597 236.06C650.328 235.829 649.983 235.696 649.63 235.712C649.264 235.729 648.945 235.878 648.7 236.146C648.454 236.415 648.334 236.744 648.351 237.109C648.368 237.473 648.519 237.791 648.788 238.035C649.058 238.28 649.403 238.399 649.756 238.383C650.108 238.367 650.44 238.203 650.686 237.949C650.816 237.821 650.904 237.669 650.95 237.504Z" fill="#201D67"/>
<path d="M649.868 242.878C649.989 242.548 649.972 242.184 649.821 241.866C649.746 241.708 649.644 241.564 649.515 241.434C649.246 241.203 648.901 241.07 648.548 241.086C648.182 241.103 647.863 241.252 647.618 241.521C647.372 241.789 647.252 242.118 647.269 242.483C647.286 242.847 647.437 243.165 647.706 243.409C647.976 243.654 648.307 243.774 648.673 243.757C649.026 243.741 649.358 243.577 649.604 243.323C649.72 243.196 649.809 243.057 649.868 242.878Z" fill="#201D67"/>
<path d="M651.195 248.602C651.673 248.08 651.632 247.189 651.107 246.713C650.838 246.482 650.492 246.349 650.139 246.365C649.773 246.382 649.454 246.531 649.209 246.799C648.963 247.067 648.843 247.397 648.86 247.762C648.868 247.937 648.917 248.11 648.992 248.256C649.067 248.415 649.169 248.559 649.297 248.688C649.567 248.933 649.899 249.053 650.265 249.036C650.603 249.007 650.948 248.843 651.195 248.602Z" fill="#201D67"/>
<path d="M655.993 245.989C656.166 245.914 656.297 245.813 656.427 245.686C656.905 245.164 656.863 244.273 656.338 243.797C656.197 243.682 656.057 243.593 655.878 243.534C655.712 243.474 655.534 243.442 655.371 243.449C655.195 243.457 655.021 243.505 654.875 243.58C654.715 243.655 654.571 243.756 654.441 243.883C654.195 244.151 654.075 244.481 654.092 244.846C654.1 245.021 654.149 245.194 654.224 245.34C654.299 245.499 654.401 245.643 654.529 245.772C654.799 246.017 655.131 246.137 655.497 246.12C655.659 246.113 655.834 246.064 655.993 245.989Z" fill="#201D67"/>
<path d="M655.746 240.663C655.905 240.588 656.05 240.487 656.18 240.36C656.657 239.824 656.615 238.934 656.091 238.471C655.95 238.356 655.81 238.267 655.63 238.208C655.464 238.148 655.286 238.115 655.124 238.123C654.758 238.139 654.439 238.289 654.193 238.557C654.078 238.698 653.99 238.85 653.929 239.015C653.869 239.18 653.837 239.357 653.845 239.533C653.862 239.897 654.013 240.215 654.282 240.459C654.424 240.575 654.577 240.662 654.743 240.722C654.91 240.796 655.087 240.815 655.25 240.807C655.412 240.786 655.587 240.751 655.746 240.663Z" fill="#201D67"/>
<path d="M659.661 240.98C659.415 241.248 659.295 241.578 659.312 241.943C659.32 242.118 659.369 242.292 659.444 242.437C659.519 242.596 659.621 242.74 659.749 242.869C659.891 242.984 660.044 243.072 660.21 243.132C660.376 243.192 660.554 243.225 660.717 243.217C661.083 243.2 661.401 243.037 661.647 242.783C661.995 242.388 662.104 241.802 661.864 241.313C661.788 241.141 661.686 241.01 661.558 240.881C661.289 240.649 660.943 240.516 660.591 240.533C660.414 240.541 660.24 240.589 660.094 240.663C659.935 240.752 659.791 240.853 659.661 240.98Z" fill="#201D67"/>
<path d="M713.044 165.49C709.496 164.018 706.933 160.623 706.744 156.55C706.482 150.928 710.867 146.145 716.523 145.885C721.554 145.654 725.913 149.075 727.003 153.809C723.959 154.111 721.553 156.451 721.132 159.389C720.764 159.352 720.382 159.329 720.002 159.347C716.449 159.51 713.595 162.141 713.044 165.49Z" stroke="#151254" stroke-width="2.26737" stroke-linecap="round" stroke-linejoin="round"/>
<path d="M722.388 151.602C722.35 150.779 721.64 150.135 720.813 150.173C719.986 150.211 719.34 150.916 719.378 151.739C719.417 152.562 720.126 153.205 720.953 153.167C721.794 153.129 722.427 152.424 722.388 151.602Z" fill="#201D67"/>
<path d="M730.088 147.938C730.049 147.115 729.34 146.471 728.513 146.509C727.686 146.547 727.039 147.252 727.078 148.075C727.116 148.898 727.825 149.541 728.652 149.503C729.492 149.452 730.126 148.76 730.088 147.938Z" fill="#201D67"/>
<path d="M717.966 156.17C717.928 155.347 717.218 154.704 716.391 154.742C715.564 154.779 714.918 155.485 714.956 156.308C714.994 157.13 715.704 157.774 716.531 157.736C717.372 157.697 718.004 156.993 717.966 156.17Z" fill="#201D67"/>
<path d="M711.991 157.742C711.991 157.742 711.815 157.466 711.581 157.112C711.362 156.771 711.172 156.482 711.172 156.482C711.172 156.482 711.348 156.758 711.581 157.112C711.815 157.453 711.991 157.742 711.991 157.742Z" stroke="#151254" stroke-width="2.26737" stroke-linecap="round" stroke-linejoin="round"/>
<path d="M715.564 150.7C715.564 150.7 715.443 151.017 715.298 151.402C715.153 151.787 715.032 152.103 715.032 152.103C715.032 152.103 715.153 151.787 715.298 151.402C715.443 151.017 715.564 150.7 715.564 150.7Z" stroke="#151254" stroke-width="2.26737" stroke-linecap="round" stroke-linejoin="round"/>
<path d="M723.784 143.62C723.784 143.62 724.026 143.852 724.324 144.135C724.623 144.419 724.865 144.651 724.865 144.651C724.865 144.651 724.623 144.419 724.324 144.135C724.026 143.852 723.784 143.62 723.784 143.62Z" stroke="#151254" stroke-width="2.26737" stroke-linecap="round" stroke-linejoin="round"/>
<path d="M716.166 142.605C717.702 141.129 719.751 140.184 722.043 140.078C727.047 139.848 731.289 143.694 731.521 148.669C731.707 152.688 729.221 156.221 725.614 157.548" stroke="#151254" stroke-width="2.26737" stroke-linecap="round" stroke-linejoin="round"/>
<path d="M623.491 28.583L608.418 34.826L624.011 39.6741" stroke="#151254" stroke-width="2.26737" stroke-linecap="round" stroke-linejoin="round"/>
<path d="M624.833 42.4137C624.822 42.1845 624.799 41.9828 624.763 41.7953C624.451 40.323 623.335 40.171 623.248 38.3101C623.15 36.22 624.539 36.1568 624.442 34.0936C624.344 32.0034 622.955 32.0666 622.858 30.0034C622.771 28.1425 623.854 27.9041 624.04 26.3956C624.059 26.219 624.063 26.0027 624.052 25.7734" stroke="#151254" stroke-width="2.26737" stroke-linecap="round" stroke-linejoin="round"/>
<path d="M626.863 40.9294C626.131 40.9625 625.395 40.8877 624.72 40.6884C624.416 39.4179 623.297 39.3063 623.222 37.7143C623.137 35.92 624.533 35.8568 624.449 34.0895C624.365 32.2952 622.969 32.3584 622.886 30.5911C622.811 28.9991 623.9 28.774 624.098 27.4942C624.752 27.2483 625.478 27.0937 626.209 27.0606C630.057 26.8863 633.32 29.8481 633.501 33.6795C633.681 37.511 630.711 40.7551 626.863 40.9294Z" stroke="#151254" stroke-width="2.26737" stroke-linecap="round" stroke-linejoin="round"/>
<path d="M622.68 41.1194L622.036 27.2578" stroke="#151254" stroke-width="2.26737" stroke-linecap="round" stroke-linejoin="round"/>
<path d="M622.109 171.626L621.641 161.647L620.207 161.713L620.675 171.692L622.109 171.626Z" stroke="#151254" stroke-width="2.26737" stroke-linecap="round" stroke-linejoin="round"/>
<path d="M633.861 177.146C633.904 178.063 633.07 178.804 632.166 178.629C626.531 177.466 622.176 172.623 621.895 166.635C621.614 160.646 625.497 155.428 630.999 153.759C631.882 153.489 632.782 154.151 632.826 155.081L633.861 177.146V177.146Z" stroke="#151254" stroke-width="2.26737" stroke-linecap="round" stroke-linejoin="round"/>
<path d="M633.102 160.729C633.175 162.301 634.516 163.517 636.095 163.445C637.675 163.373 638.896 162.041 638.822 160.469C638.748 158.897 637.408 157.68 635.828 157.752C634.249 157.824 633.028 159.157 633.102 160.729Z" stroke="#151254" stroke-width="2.26737" stroke-linecap="round" stroke-linejoin="round"/>
<path d="M633.818 171.479C633.892 173.051 635.233 174.267 636.812 174.195C638.392 174.123 639.613 172.791 639.539 171.219C639.465 169.646 638.125 168.43 636.545 168.502C634.965 168.574 633.745 169.907 633.818 171.479Z" stroke="#151254" stroke-width="2.26737" stroke-linecap="round" stroke-linejoin="round"/>
<path d="M633.575 166.544C633.631 167.729 634.641 168.645 635.831 168.591C637.022 168.537 637.941 167.533 637.886 166.348C637.83 165.163 636.82 164.247 635.63 164.301C634.439 164.355 633.52 165.36 633.575 166.544Z" stroke="#151254" stroke-width="2.26737" stroke-linecap="round" stroke-linejoin="round"/>
<path d="M638.562 158.925L642.854 154.241" stroke="#151254" stroke-width="2.26737" stroke-linecap="round" stroke-linejoin="round"/>
<path d="M628.581 155.627L629.574 176.986" stroke="#151254" stroke-width="2.26737" stroke-linecap="round" stroke-linejoin="round"/>
<path d="M668.309 111.807L667.176 87.5352C664.927 87.638 663.197 89.528 663.301 91.7664L664.056 107.948C664.161 110.186 666.06 111.91 668.309 111.807Z" stroke="#151254" stroke-width="2.26737" stroke-linecap="round" stroke-linejoin="round"/>
<path d="M679.948 99.1101C679.67 93.1493 674.591 88.5431 668.599 88.817L667.244 88.8789L668.252 110.457L669.607 110.395C675.599 110.121 680.227 105.071 679.948 99.1101Z" stroke="#151254" stroke-width="2.26737" stroke-linecap="round" stroke-linejoin="round"/>
<path d="M678.935 99.1553C678.995 100.459 680.107 101.467 681.418 101.407C682.728 101.347 683.741 100.242 683.68 98.9384C683.619 97.6349 682.508 96.6267 681.197 96.6866C679.887 96.7465 678.874 97.8518 678.935 99.1553Z" fill="#201D67"/>
<path d="M712.792 9.75488C712.735 13.5006 711.268 17.311 708.394 20.4023C705.546 23.4655 701.824 25.2445 698.038 25.6617" stroke="#151254" stroke-width="2.26737" stroke-linecap="round" stroke-linejoin="round"/>
<path d="M697.228 27.2374L696.744 25.5975L691.825 8.95949C691.164 6.71972 693.106 4.64411 695.438 5.10452L700.375 6.06679L700.691 6.13336L704.984 6.97662L705.395 7.05233L712.597 8.47812L714.353 8.82987C716.04 9.15775 717.186 10.7131 716.991 12.3707C716.515 16.4464 714.82 20.3349 711.869 23.5108C708.944 26.6721 705.163 28.67 701.085 29.5195C699.416 29.8665 697.711 28.8637 697.228 27.2374Z" stroke="#151254" stroke-width="2.26737" stroke-linecap="round" stroke-linejoin="round"/>
<path d="M701.094 16.871C701.15 18.0626 702.178 18.9833 703.392 18.9276C704.605 18.8718 705.544 17.8607 705.488 16.6692C705.433 15.4776 704.405 14.5569 703.191 14.6127C701.978 14.6684 701.039 15.6795 701.094 16.871Z" stroke="#151254" stroke-width="2.26737" stroke-linecap="round" stroke-linejoin="round"/>
<path d="M701.552 8.85245C700.758 8.14572 700.464 7.09169 700.719 6.1341L706.315 7.22829C706.216 7.74629 705.995 8.24294 705.607 8.66615C704.532 9.82356 702.715 9.90705 701.552 8.85245Z" stroke="#151254" stroke-width="2.26737" stroke-linecap="round" stroke-linejoin="round"/>
<path d="M693.9 10.9062C694.677 10.6678 695.554 10.8302 696.192 11.3955C697.156 12.2565 697.224 13.7128 696.344 14.6586C696.059 14.969 695.702 15.1881 695.313 15.3005" stroke="#151254" stroke-width="2.26737" stroke-linecap="round" stroke-linejoin="round"/>
</g>
</g>
</svg>
