<svg width="17" height="13" viewBox="0 0 17 13" fill="none" xmlns="http://www.w3.org/2000/svg">
<g id="Email">
<g id="Icon">
<path d="M4.46005 0.237625C7.2061 -0.00108337 9.96768 -0.00108355 12.7137 0.237625L14.0367 0.352632C14.9175 0.429193 15.6718 0.954523 16.0627 1.70596C16.1127 1.8021 16.0752 1.91849 15.983 1.97552L10.4939 5.37359C9.31658 6.10238 7.83213 6.11767 6.64009 5.41329L1.11423 2.148C1.02495 2.09525 0.98397 1.98665 1.0242 1.89108C1.38176 1.04171 2.18564 0.435336 3.13704 0.352633L4.46005 0.237625Z" fill="#6C5FBC"/>
<path d="M1.01971 3.61847C0.883078 3.53774 0.708745 3.62462 0.692818 3.78252C0.470538 5.9863 0.524336 8.21094 0.854212 10.4046C1.02812 11.5611 1.97196 12.4477 3.13704 12.5489L4.46005 12.664C7.2061 12.9027 9.96769 12.9027 12.7137 12.664L14.0368 12.5489C15.2018 12.4477 16.1457 11.5611 16.3196 10.4046C16.6591 8.14701 16.7062 5.85661 16.4608 3.58991C16.4436 3.43089 16.2663 3.34561 16.1303 3.4298L11.1855 6.49088C9.59273 7.47689 7.58435 7.49758 5.9716 6.54459L1.01971 3.61847Z" fill="#6C5FBC"/>
</g>
</g>
</svg>
