<svg width="17" height="13" viewBox="0 0 17 13" fill="none" xmlns="http://www.w3.org/2000/svg">
<g id="Email">
<path id="Icon" fill-rule="evenodd" clip-rule="evenodd" d="M0.432457 3.58608C0.192939 5.71156 0.203616 8.16293 0.536907 10.2798C0.721325 11.4511 1.72223 12.349 2.95773 12.4516L4.24895 12.5588C6.94132 12.7823 9.64893 12.7823 12.3413 12.5588L13.6325 12.4516C14.868 12.349 15.8689 11.4511 16.0533 10.2798C16.3866 8.16292 16.3973 5.71169 16.1578 3.58621C16.1268 3.33979 16.092 3.09371 16.0533 2.84804C15.8689 1.67675 14.868 0.778795 13.6325 0.676218L12.3413 0.569016C9.64892 0.345484 6.94132 0.345484 4.24895 0.569016L2.95773 0.676218C1.72222 0.778795 0.721325 1.67675 0.536907 2.84804C0.498234 3.09367 0.463417 3.33971 0.432457 3.58608ZM4.36001 1.78929C6.97848 1.57189 9.61176 1.57189 12.2302 1.78929L13.5215 1.89649C14.1664 1.95004 14.6889 2.41877 14.7851 3.03019C14.7951 3.09368 14.8049 3.15721 14.8143 3.22076L10.0598 5.74355C8.96231 6.32586 7.62788 6.32586 6.53043 5.74355L1.77594 3.22079C1.78539 3.15723 1.79512 3.09369 1.80512 3.03019C1.90139 2.41877 2.42386 1.95004 3.06879 1.89649L4.36001 1.78929ZM14.9712 4.5387C15.1371 6.3905 15.075 8.25627 14.7851 10.0976C14.6889 10.7091 14.1664 11.1778 13.5215 11.2313L12.2302 11.3385C9.61177 11.5559 6.97848 11.5559 4.36001 11.3385L3.06879 11.2313C2.42386 11.1778 1.90139 10.7091 1.80512 10.0976C1.5152 8.25628 1.45317 6.39052 1.619 4.53873L5.90761 6.81428C7.39239 7.60211 9.1978 7.60211 10.6826 6.81428L14.9712 4.5387Z" fill="#C2C3CB"/>
</g>
</svg>
