<svg width="16" height="17" viewBox="0 0 16 17" fill="none" xmlns="http://www.w3.org/2000/svg">
<path d="M11.8888 5.37115C11.5346 4.72182 11.0476 4.22745 10.4278 3.88803C9.80796 3.54861 9.08485 3.3789 8.25843 3.3789C7.34347 3.3789 6.53181 3.5855 5.82346 3.99871C5.1151 4.41192 4.5617 5.00222 4.16325 5.7696C3.7648 6.53699 3.56557 7.42243 3.56557 8.42594C3.56557 9.45896 3.7648 10.3592 4.16325 11.1265C4.57646 11.8939 5.14462 12.4842 5.86773 12.8974C6.59084 13.3106 7.43202 13.5172 8.39125 13.5172C9.57184 13.5172 10.5385 13.2073 11.2911 12.5875C12.0437 11.953 12.5381 11.0749 12.7742 9.95333H7.46153V7.58476H15.829V10.2854C15.6224 11.3627 15.1797 12.3588 14.5008 13.2738C13.822 14.1887 12.9439 14.9266 11.8666 15.4874C10.8041 16.0334 9.60874 16.3064 8.28057 16.3064C6.79007 16.3064 5.43976 15.9744 4.22966 15.3103C3.0343 14.6314 2.08983 13.6943 1.39623 12.499C0.717389 11.3036 0.377968 9.94595 0.377968 8.42594C0.377968 6.90592 0.717389 5.54824 1.39623 4.35289C2.08983 3.14278 3.0343 2.20568 4.22966 1.5416C5.43976 0.862758 6.78269 0.523337 8.25843 0.523337C9.99981 0.523337 11.5124 0.951302 12.7963 1.80723C14.0802 2.64841 14.9657 3.83638 15.4527 5.37115H11.8888Z" fill="#323142"/>
</svg>
