<svg width="32" height="42" viewBox="0 0 32 42" fill="none" xmlns="http://www.w3.org/2000/svg">
<path opacity="0.1" d="M29.6199 39.3173L25.9213 34.2256L31.0129 30.527C31.6537 30.0615 31.7977 29.1529 31.3322 28.5121C30.8668 27.8714 29.9581 27.7274 29.3173 28.1928L24.2257 31.8915L20.527 26.7998C20.0616 26.1591 19.1529 26.0151 18.5122 26.4806C17.8714 26.946 17.7274 27.8547 18.1929 28.4954L21.8916 33.5871L16.7999 37.2857C16.1592 37.7512 16.0152 38.6599 16.4806 39.3006C16.9461 39.9413 17.8547 40.0853 18.4955 39.6199L23.5871 35.9212L27.2858 41.0129C27.7513 41.6536 28.6599 41.7976 29.3007 41.3321C29.9513 40.8683 30.0937 39.9695 29.6199 39.3173Z" fill="white"/>
<path opacity="0.1" d="M7.00935 6.8535L5.1059 4.23317L7.72622 2.32973C8.05597 2.09019 8.13007 1.62256 7.89053 1.29281C7.651 0.963062 7.18338 0.88896 6.85363 1.1285L4.2333 3.03196L2.32984 0.411627C2.09031 0.0818782 1.62268 0.00777547 1.29293 0.247312C0.963185 0.486848 0.889081 0.954479 1.12862 1.28423L3.03207 3.90454L0.411749 5.808C0.0820005 6.04754 0.0078966 6.51517 0.247433 6.84492C0.486969 7.17467 0.954592 7.24877 1.28434 7.00924L3.90466 5.10577L5.80813 7.7261C6.04766 8.05585 6.51529 8.12996 6.84503 7.89042C7.17987 7.65169 7.25316 7.18914 7.00935 6.8535Z" fill="white"/>
</svg>
