<svg width="24" height="44" viewBox="0 0 24 44" fill="none" xmlns="http://www.w3.org/2000/svg">
<g id="Group 39876">
<path id="Vector" fill-rule="evenodd" clip-rule="evenodd" d="M9.17644 35.8838C7.95436 38.0095 6.44168 40.0162 4.99783 41.9919C3.73479 39.9203 2.54618 37.7983 1.31158 35.7109C2.83177 33.5758 3.95289 31.1042 5.04897 28.731C6.73951 31.2486 8.11484 33.6752 9.17644 35.8838Z" stroke="#AA9CFF" stroke-width="2.48946" stroke-miterlimit="1.5" stroke-linecap="round" stroke-linejoin="round"/>
<path id="Vector_2" fill-rule="evenodd" clip-rule="evenodd" d="M18.4879 14.0285C18.5484 12.0119 17.6177 10.0007 15.5769 8.78695C14.7867 8.31694 13.8505 8.14582 12.9285 8.0036C16.6741 7.89027 17.9744 4.43271 18.4956 1.7561C18.3146 4.15668 19.7376 6.74966 22.6456 6.98894C19.7507 8.49102 18.7572 11.2474 18.4879 14.0285Z" stroke="#A597FF" stroke-width="2.15313" stroke-miterlimit="1.5" stroke-linecap="round" stroke-linejoin="round"/>
</g>
</svg>
