<svg width="16" height="15" viewBox="0 0 16 15" fill="none" xmlns="http://www.w3.org/2000/svg">
<g id="Icon">
<path fill-rule="evenodd" clip-rule="evenodd" d="M14.7425 1.4182C14.9741 1.18665 14.9741 0.811226 14.7425 0.579672C14.511 0.348117 14.1355 0.348117 13.904 0.579672L1.25477 13.2289C1.02321 13.4604 1.02321 13.8359 1.25477 14.0674C1.48632 14.299 1.86175 14.299 2.0933 14.0674L4.34399 11.8167C5.42416 12.3252 6.66825 12.6599 7.99864 12.6599C10.1206 12.6599 12.023 11.8084 13.3908 10.7586C14.0761 10.2326 14.642 9.64591 15.0418 9.06981C15.4306 8.50964 15.7068 7.8949 15.7068 7.32355C15.7068 6.7522 15.4306 6.13746 15.0418 5.57728C14.642 5.00119 14.0761 4.41445 13.3908 3.88852C13.1836 3.72947 12.9641 3.57497 12.7334 3.42729L14.7425 1.4182ZM11.8721 4.28863L10.4721 5.6886C10.7825 6.15727 10.9633 6.7193 10.9633 7.32355C10.9633 8.96088 9.63598 10.2882 7.99864 10.2882C7.3944 10.2882 6.83237 10.1074 6.3637 9.79702L5.24368 10.917C6.08606 11.2602 7.02001 11.4741 7.99864 11.4741C9.80634 11.4741 11.4615 10.7444 12.6688 9.81784C13.2712 9.35555 13.7473 8.85524 14.0676 8.39371C14.3989 7.91625 14.5209 7.54277 14.5209 7.32355C14.5209 7.10432 14.3989 6.73084 14.0676 6.25339C13.7473 5.79185 13.2712 5.29154 12.6688 4.82925C12.4212 4.63923 12.1548 4.45749 11.8721 4.28863ZM7.23174 8.92899C7.46395 9.04011 7.72403 9.10234 7.99864 9.10234C8.98105 9.10234 9.77744 8.30595 9.77744 7.32355C9.77744 7.04893 9.71521 6.78885 9.60408 6.55664L7.23174 8.92899Z" fill="#6C5FBC"/>
<path d="M7.99864 1.98716C8.8148 1.98716 9.59847 2.11313 10.3317 2.32791C10.4728 2.36923 10.5148 2.5458 10.4109 2.64974L9.75902 3.30161C9.71012 3.35051 9.63927 3.3701 9.57187 3.35459C9.06638 3.2383 8.53933 3.17302 7.99864 3.17302C6.19096 3.17302 4.53575 3.90266 3.32845 4.82925C2.72611 5.29154 2.25003 5.79185 1.92973 6.25339C1.59838 6.73084 1.47639 7.10432 1.47639 7.32355C1.47639 7.54277 1.59838 7.91625 1.92973 8.39371C2.20946 8.79678 2.608 9.22943 3.1057 9.6405C3.19729 9.71614 3.20602 9.85461 3.12202 9.93861L2.56157 10.4991C2.49018 10.5705 2.37625 10.5767 2.29889 10.5118C1.75103 10.0524 1.29379 9.5573 0.955483 9.06981C0.566732 8.50964 0.290527 7.8949 0.290527 7.32355C0.290527 6.7522 0.566732 6.13746 0.955483 5.57728C1.35528 5.00119 1.92119 4.41445 2.60645 3.88852C3.97434 2.83867 5.87673 1.98716 7.99864 1.98716Z" fill="#6C5FBC"/>
<path d="M7.99864 4.35889C8.09231 4.35889 8.18495 4.36323 8.27639 4.37173C8.43202 4.38619 8.48836 4.57227 8.37784 4.68279L7.41946 5.64117C6.90297 5.81895 6.49405 6.22787 6.31627 6.74436L5.35789 7.70274C5.24736 7.81327 5.06128 7.75692 5.04682 7.60129C5.03833 7.50985 5.03398 7.41721 5.03398 7.32355C5.03398 5.68621 6.36131 4.35889 7.99864 4.35889Z" fill="#6C5FBC"/>
</g>
</svg>
