<svg width="22" height="16" viewBox="0 0 22 16" fill="none" xmlns="http://www.w3.org/2000/svg">
<g id="icon">
<path id="Rectangle 147 (Stroke)" fill-rule="evenodd" clip-rule="evenodd" d="M2.02102 15.7595C1.05586 15.7595 0.273437 14.9771 0.273437 14.0119L0.273437 2.02855C0.273437 1.06339 1.05585 0.280976 2.02102 0.280976L19.9426 0.280976C20.995 0.280976 21.5751 1.50335 20.9096 2.31862L19.1084 4.52509L21.3172 7.23087C21.6922 7.6903 21.6922 8.35019 21.3172 8.80963L19.1084 11.5154L20.9096 13.7219C21.5751 14.5371 20.995 15.7595 19.9426 15.7595L2.02102 15.7595ZM1.77136 14.0119C1.77136 14.1498 1.88314 14.2616 2.02102 14.2616L19.4165 14.2616L17.8191 12.3048C17.444 11.8453 17.444 11.1855 17.8191 10.726L20.0279 8.02025L17.8191 5.31447C17.444 4.85504 17.444 4.19514 17.8191 3.73572L19.4165 1.7789L2.02102 1.7789C1.88314 1.7789 1.77136 1.89067 1.77136 2.02855L1.77136 14.0119Z" fill="#ACADB9"/>
<path id="Vector 354 (Stroke)" fill-rule="evenodd" clip-rule="evenodd" d="M7.01224 12.7617C6.59855 12.7617 6.26318 12.4264 6.26318 12.0127L6.26318 4.02271C6.26318 3.60901 6.59855 3.27365 7.01224 3.27365C7.42594 3.27365 7.7613 3.60901 7.7613 4.02271L7.7613 12.0127C7.7613 12.4264 7.42594 12.7617 7.01224 12.7617Z" fill="#ACADB9"/>
<path id="Vector 356 (Stroke)" fill-rule="evenodd" clip-rule="evenodd" d="M10.0103 12.7617C9.5966 12.7617 9.26123 12.4264 9.26123 12.0127V4.02271C9.26123 3.60901 9.5966 3.27365 10.0103 3.27365C10.424 3.27365 10.7593 3.60901 10.7593 4.02271V12.0127C10.7593 12.4264 10.424 12.7617 10.0103 12.7617Z" fill="#ACADB9"/>
<path id="Vector 357 (Stroke)" fill-rule="evenodd" clip-rule="evenodd" d="M13.0059 12.7617C12.5922 12.7617 12.2568 12.4264 12.2568 12.0127V4.02271C12.2568 3.60901 12.5922 3.27365 13.0059 3.27365C13.4196 3.27365 13.755 3.60901 13.755 4.02271V12.0127C13.755 12.4264 13.4196 12.7617 13.0059 12.7617Z" fill="#ACADB9"/>
</g>
</svg>
