<svg width="14" height="19" viewBox="0 0 14 19" fill="none" xmlns="http://www.w3.org/2000/svg">
<g id="Icon - Text">
<g id="Lock">
<path id="Icon" fill-rule="evenodd" clip-rule="evenodd" d="M2.8006 5.77162L3.11019 8.55795L2.48369 8.60796C1.61005 8.67771 0.896677 9.33444 0.755056 10.1993C0.428653 12.1927 0.428653 14.2259 0.755056 16.2193C0.896677 17.0842 1.61005 17.741 2.48369 17.8107L3.83385 17.9185C5.96553 18.0887 8.10739 18.0887 10.2391 17.9185L11.5892 17.8107C12.4629 17.741 13.1762 17.0842 13.3179 16.2193C13.6443 14.2259 13.6443 12.1927 13.3179 10.1993C13.1762 9.33444 12.4629 8.67771 11.5892 8.60796L10.9626 8.55794L11.2722 5.77162C11.3087 5.44316 11.3087 5.11166 11.2722 4.78319L11.2517 4.59829C11.0338 2.63694 9.49186 1.08507 7.53196 0.854489C7.20273 0.815756 6.8701 0.815756 6.54087 0.854489C4.58097 1.08507 3.03907 2.63694 2.82114 4.59829L2.8006 4.78319C2.7641 5.11166 2.7641 5.44316 2.8006 5.77162ZM7.3738 2.19887C7.14965 2.1725 6.92318 2.1725 6.69903 2.19887C5.36467 2.35585 4.31489 3.41242 4.16652 4.74777L4.14597 4.93268C4.12051 5.16179 4.12051 5.39302 4.14597 5.62214L4.46074 8.45505C6.17609 8.34504 7.89674 8.34504 9.61209 8.45505L9.92686 5.62214C9.95232 5.39302 9.95232 5.16179 9.92686 4.93268L9.90631 4.74777C9.75794 3.41243 8.70816 2.35585 7.3738 2.19887ZM7.03644 11.8557C6.28883 11.8557 5.68278 12.4617 5.68278 13.2093C5.68278 13.9569 6.28883 14.563 7.03644 14.563C7.78404 14.563 8.39009 13.9569 8.39009 13.2093C8.39009 12.4617 7.78404 11.8557 7.03644 11.8557Z" fill="#6C5FBC"/>
</g>
</g>
</svg>
