<svg width="30" height="31" viewBox="0 0 30 31" fill="none" xmlns="http://www.w3.org/2000/svg">
<g id="Locatin">
<circle id="Ellipse 2039" opacity="0.3" cx="15.0112" cy="15.5149" r="14.9282" fill="#6C5FBC"/>
<g id="Icon">
<path d="M12.5426 14.018C12.5426 12.5613 13.7234 11.3805 15.1801 11.3805C16.6368 11.3805 17.8177 12.5613 17.8177 14.018C17.8177 15.4747 16.6368 16.6556 15.1801 16.6556C13.7234 16.6556 12.5426 15.4747 12.5426 14.018Z" fill="#6C5FBC"/>
<path fill-rule="evenodd" clip-rule="evenodd" d="M8.50384 13.107C8.78273 9.72361 11.61 7.11975 15.0049 7.11975H15.3554C18.7503 7.11975 21.5776 9.72361 21.8565 13.107C22.0066 14.9286 21.4439 16.7374 20.2869 18.1524L16.397 22.9096C15.7681 23.6788 14.5922 23.6788 13.9633 22.9096L10.0734 18.1524C8.91638 16.7374 8.35369 14.9286 8.50384 13.107ZM15.1801 10.1631C13.0511 10.1631 11.3252 11.889 11.3252 14.018C11.3252 16.1471 13.0511 17.873 15.1801 17.873C17.3091 17.873 19.0351 16.1471 19.0351 14.018C19.0351 11.889 17.3091 10.1631 15.1801 10.1631Z" fill="#6C5FBC"/>
</g>
</g>
</svg>
