<svg width="14" height="18" viewBox="0 0 14 18" fill="none" xmlns="http://www.w3.org/2000/svg">
<g id="Lock">
<g id="Icon">
<path d="M5.69995 12.4832C5.69995 11.7605 6.28581 11.1747 7.0085 11.1747C7.73119 11.1747 8.31704 11.7605 8.31704 12.4832C8.31704 13.2059 7.73119 13.7917 7.0085 13.7917C6.28581 13.7917 5.69995 13.2059 5.69995 12.4832Z" fill="#C2C3CB"/>
<path fill-rule="evenodd" clip-rule="evenodd" d="M3.18899 7.76995L2.91381 5.29333C2.87853 4.97581 2.87852 4.65536 2.91381 4.33784L2.93367 4.15909C3.14433 2.2631 4.63485 0.762937 6.52944 0.540045C6.8477 0.502602 7.16925 0.502602 7.48751 0.540045C9.3821 0.762937 10.8726 2.26311 11.0833 4.15909L11.1031 4.33784C11.1384 4.65536 11.1384 4.97581 11.1031 5.29333L10.828 7.76994L11.4269 7.81776C12.3715 7.89317 13.1427 8.60318 13.2958 9.53827C13.6152 11.4886 13.6152 13.4778 13.2958 15.4281C13.1427 16.3632 12.3715 17.0732 11.4269 17.1486L10.1218 17.2528C8.04957 17.4183 5.96747 17.4183 3.89528 17.2528L2.59011 17.1486C1.64558 17.0732 0.874314 16.3632 0.7212 15.4281C0.401853 13.4778 0.401853 11.4886 0.7212 9.53827C0.874314 8.60318 1.64557 7.89317 2.59011 7.81776L3.18899 7.76995ZM6.68233 1.83963C6.89901 1.81414 7.11794 1.81414 7.33462 1.83963C8.62452 1.99138 9.63932 3.01275 9.78274 4.3036L9.8026 4.48234C9.82721 4.70382 9.82721 4.92735 9.8026 5.14883L9.52244 7.67035C7.8482 7.56254 6.16876 7.56254 4.49452 7.67036L4.21435 5.14883C4.18974 4.92735 4.18974 4.70382 4.21435 4.48234L4.23421 4.3036C4.37764 3.01275 5.39243 1.99138 6.68233 1.83963ZM10.0176 9.01796C8.01474 8.85807 6.0023 8.85807 3.99941 9.01796L2.69424 9.12216C2.34972 9.14966 2.0684 9.40864 2.01255 9.74972C1.71613 11.56 1.71613 13.4064 2.01255 15.2167C2.0684 15.5578 2.34972 15.8167 2.69424 15.8442L3.99941 15.9484C6.0023 16.1083 8.01475 16.1083 10.0176 15.9484L11.3228 15.8442C11.6673 15.8167 11.9486 15.5578 12.0045 15.2167C12.3009 13.4064 12.3009 11.56 12.0045 9.74972C11.9486 9.40864 11.6673 9.14966 11.3228 9.12216L10.0176 9.01796Z" fill="#C2C3CB"/>
</g>
</g>
</svg>
