<svg width="14" height="18" viewBox="0 0 14 18" fill="none" xmlns="http://www.w3.org/2000/svg">
<path d="M5.27692 12.3677C5.27692 11.645 5.86277 11.0592 6.58546 11.0592C7.30815 11.0592 7.89401 11.645 7.89401 12.3677C7.89401 13.0904 7.30815 13.6763 6.58546 13.6763C5.86277 13.6763 5.27692 13.0904 5.27692 12.3677Z" fill="#C2C3CB"/>
<path fill-rule="evenodd" clip-rule="evenodd" d="M2.76595 7.65447L2.49077 5.17785C2.45549 4.86033 2.45549 4.53988 2.49077 4.22236L2.51063 4.04361C2.7213 2.14763 4.21182 0.647459 6.10641 0.424566C6.42467 0.387124 6.74622 0.387124 7.06448 0.424566C8.95906 0.647459 10.4496 2.14763 10.6603 4.04361L10.6801 4.22236C10.7154 4.53988 10.7154 4.86033 10.6801 5.17785L10.4049 7.65447L11.0039 7.70228C11.9484 7.77769 12.7197 8.48771 12.8728 9.42279C13.1922 11.3731 13.1922 13.3624 12.8728 15.3127C12.7197 16.2477 11.9484 16.9578 11.0039 17.0332L9.69873 17.1374C7.62653 17.3028 5.54444 17.3028 3.47224 17.1374L2.16707 17.0332C1.22254 16.9578 0.451279 16.2477 0.298166 15.3127C-0.0211822 13.3624 -0.0211822 11.3731 0.298166 9.42279C0.451279 8.48771 1.22254 7.77769 2.16707 7.70228L2.76595 7.65447ZM6.2593 1.72415C6.47598 1.69866 6.6949 1.69866 6.91159 1.72415C8.20148 1.8759 9.21628 2.89727 9.35971 4.18812L9.37957 4.36686C9.40418 4.58834 9.40418 4.81187 9.37957 5.03335L9.0994 7.55487C7.42516 7.44706 5.74572 7.44707 4.07148 7.55488L3.79131 5.03335C3.7667 4.81187 3.7667 4.58834 3.79131 4.36686L3.81117 4.18812C3.9546 2.89727 4.9694 1.8759 6.2593 1.72415ZM9.5946 8.90248C7.59171 8.74259 5.57926 8.74259 3.57637 8.90248L2.2712 9.00668C1.92668 9.03418 1.64536 9.29317 1.58951 9.63424C1.2931 11.4445 1.2931 13.2909 1.58951 15.1012C1.64536 15.4423 1.92668 15.7013 2.2712 15.7288L3.57637 15.833C5.57926 15.9929 7.59171 15.9929 9.5946 15.833L10.8998 15.7288C11.2443 15.7013 11.5256 15.4423 11.5815 15.1012C11.8779 13.2909 11.8779 11.4445 11.5815 9.63424C11.5256 9.29317 11.2443 9.03418 10.8998 9.00668L9.5946 8.90248Z" fill="#C2C3CB"/>
</svg>
