<svg width="16" height="15" viewBox="0 0 16 15" fill="none" xmlns="http://www.w3.org/2000/svg">
<g id="Icon">
<path fill-rule="evenodd" clip-rule="evenodd" d="M14.7137 1.4182C14.9453 1.18665 14.9453 0.811226 14.7137 0.579672C14.4822 0.348117 14.1067 0.348117 13.8752 0.579672L1.22596 13.2289C0.994406 13.4604 0.994406 13.8359 1.22596 14.0674C1.45752 14.299 1.83294 14.299 2.06449 14.0674L4.31518 11.8167C5.39535 12.3252 6.63945 12.6599 7.96984 12.6599C10.0918 12.6599 11.9941 11.8084 13.362 10.7586C14.0473 10.2326 14.6132 9.64591 15.013 9.06982C15.4018 8.50964 15.678 7.8949 15.678 7.32355C15.678 6.7522 15.4018 6.13746 15.013 5.57728C14.6132 5.00119 14.0473 4.41445 13.362 3.88852C13.1548 3.72947 12.9353 3.57497 12.7046 3.42729L14.7137 1.4182ZM11.8433 4.28863L10.4433 5.6886C10.7537 6.15728 10.9345 6.7193 10.9345 7.32355C10.9345 8.96089 9.60717 10.2882 7.96984 10.2882C7.36559 10.2882 6.80357 10.1074 6.33489 9.79703L5.21487 10.9171C6.05725 11.2602 6.9912 11.4741 7.96984 11.4741C9.77753 11.4741 11.4327 10.7444 12.64 9.81784C13.2424 9.35555 13.7185 8.85525 14.0388 8.39371C14.3701 7.91625 14.4921 7.54278 14.4921 7.32355C14.4921 7.10432 14.3701 6.73084 14.0388 6.25339C13.7185 5.79185 13.2424 5.29154 12.64 4.82925C12.3924 4.63923 12.126 4.45749 11.8433 4.28863ZM7.20293 8.92899C7.43514 9.04012 7.69522 9.10235 7.96984 9.10235C8.95224 9.10235 9.74863 8.30595 9.74863 7.32355C9.74863 7.04893 9.68641 6.78885 9.57528 6.55664L7.20293 8.92899Z" fill="#005A64" fill-opacity="0.35"/>
<path d="M7.96984 1.98716C8.78599 1.98716 9.56966 2.11313 10.3029 2.32791C10.444 2.36923 10.486 2.5458 10.3821 2.64974L9.73021 3.30161C9.68131 3.35051 9.61046 3.3701 9.54307 3.3546C9.03757 3.2383 8.51052 3.17302 7.96984 3.17302C6.16215 3.17302 4.50694 3.90266 3.29964 4.82925C2.69731 5.29154 2.22122 5.79185 1.90092 6.25339C1.56958 6.73084 1.44758 7.10432 1.44758 7.32355C1.44758 7.54278 1.56958 7.91625 1.90092 8.39371C2.18065 8.79678 2.5792 9.22943 3.07689 9.6405C3.16848 9.71615 3.17721 9.85461 3.09321 9.93861L2.53276 10.4991C2.46137 10.5705 2.34744 10.5767 2.27008 10.5118C1.72222 10.0524 1.26498 9.5573 0.926675 9.06982C0.537923 8.50964 0.261719 7.8949 0.261719 7.32355C0.261719 6.7522 0.537923 6.13746 0.926675 5.57728C1.32647 5.00119 1.89238 4.41445 2.57764 3.88852C3.94553 2.83867 5.84792 1.98716 7.96984 1.98716Z" fill="#005A64" fill-opacity="0.35"/>
<path d="M7.96984 4.35889C8.0635 4.35889 8.15614 4.36323 8.24758 4.37173C8.40321 4.38619 8.45956 4.57227 8.34904 4.68279L7.39065 5.64117C6.87416 5.81895 6.46524 6.22787 6.28746 6.74436L5.32908 7.70275C5.21856 7.81327 5.03248 7.75693 5.01802 7.6013C5.00952 7.50985 5.00518 7.41721 5.00518 7.32355C5.00518 5.68621 6.3325 4.35889 7.96984 4.35889Z" fill="#005A64" fill-opacity="0.35"/>
</g>
</svg>
