<svg width="30" height="31" viewBox="0 0 30 31" fill="none" xmlns="http://www.w3.org/2000/svg">
<g id="Time">
<circle id="Ellipse 2039" opacity="0.3" cx="15.0126" cy="15.2297" r="14.9282" fill="#6C5FBC"/>
<path id="Icon" fill-rule="evenodd" clip-rule="evenodd" d="M7.54785 15.6955C7.54785 11.3155 11.0985 7.76489 15.4784 7.76489C19.8584 7.76489 23.409 11.3155 23.409 15.6955C23.409 20.0754 19.8584 23.6261 15.4784 23.6261C11.0985 23.6261 7.54785 20.0754 7.54785 15.6955ZM16.1782 11.0304C16.1782 10.644 15.8649 10.3307 15.4784 10.3307C15.092 10.3307 14.7787 10.644 14.7787 11.0304V15.6955C14.7787 15.9367 14.903 16.161 15.1076 16.2889L17.9066 18.0383C18.2343 18.2431 18.666 18.1435 18.8709 17.8157C19.0757 17.488 18.9761 17.0563 18.6483 16.8515L16.1782 15.3076V11.0304Z" fill="#6C5FBC"/>
</g>
</svg>
