<svg width="15" height="17" viewBox="0 0 15 17" fill="none" xmlns="http://www.w3.org/2000/svg">
<g id="User Icon">
<g id="Icon">
<path d="M7.49126 0.906738C5.5829 0.906738 4.03586 2.53941 4.03586 4.55341C4.03586 6.56741 5.5829 8.20008 7.49126 8.20008C9.39963 8.20008 10.9467 6.56741 10.9467 4.55341C10.9467 2.53941 9.39963 0.906738 7.49126 0.906738Z" fill="#6C5FBC"/>
<path d="M3.8055 10.145C1.89713 10.145 0.350098 11.7776 0.350098 13.7916V14.9472C0.350098 15.6797 0.853097 16.3042 1.53808 16.4222C5.48077 17.1016 9.50175 17.1016 13.4444 16.4222C14.1294 16.3042 14.6324 15.6797 14.6324 14.9472V13.7916C14.6324 11.7776 13.0854 10.145 11.177 10.145H10.8629C10.6929 10.145 10.524 10.1733 10.3624 10.229L9.56488 10.5039C8.21747 10.9682 6.76505 10.9682 5.41764 10.5039L4.62012 10.229C4.45852 10.1733 4.28959 10.145 4.11959 10.145H3.8055Z" fill="#6C5FBC"/>
</g>
</g>
</svg>
