<svg width="15" height="17" viewBox="0 0 15 17" fill="none" xmlns="http://www.w3.org/2000/svg">
<g id="User Icon">
<g id="Icon">
<path fill-rule="evenodd" clip-rule="evenodd" d="M3.36153 4.4734C3.36153 2.25859 5.15698 0.463135 7.37179 0.463135C9.5866 0.463135 11.3821 2.25859 11.3821 4.4734C11.3821 6.6882 9.5866 8.48366 7.37179 8.48366C5.15698 8.48366 3.36153 6.6882 3.36153 4.4734ZM7.37179 1.87852C5.93868 1.87852 4.77692 3.04029 4.77692 4.4734C4.77692 5.90651 5.93868 7.06827 7.37179 7.06827C8.8049 7.06827 9.96667 5.90651 9.96667 4.4734C9.96667 3.04029 8.8049 1.87852 7.37179 1.87852Z" fill="#C2C3CB"/>
<path fill-rule="evenodd" clip-rule="evenodd" d="M3.59743 11.3144C2.42488 11.3144 1.47435 12.265 1.47435 13.4375V14.5588C1.47435 14.5758 1.48672 14.5904 1.50357 14.5931C5.38999 15.2277 9.35359 15.2277 13.24 14.5931C13.2569 14.5904 13.2692 14.5758 13.2692 14.5588V13.4375C13.2692 12.265 12.3187 11.3144 11.1462 11.3144H10.8245C10.7996 11.3144 10.7749 11.3184 10.7513 11.3261L9.9346 11.5928C8.26932 12.1365 6.47426 12.1365 4.80898 11.5928L3.99229 11.3261C3.96865 11.3184 3.94394 11.3144 3.91907 11.3144H3.59743ZM0.05896 13.4375C0.05896 11.4833 1.64319 9.89904 3.59743 9.89904H3.91907C4.09315 9.89904 4.26614 9.92657 4.43163 9.98061L5.24832 10.2473C6.62812 10.6978 8.11546 10.6978 9.49526 10.2473L10.312 9.98061C10.4774 9.92657 10.6504 9.89904 10.8245 9.89904H11.1462C13.1004 9.89904 14.6846 11.4833 14.6846 13.4375V14.5588C14.6846 15.2695 14.1695 15.8755 13.4681 15.99C9.43061 16.6492 5.31297 16.6492 1.27551 15.99C0.574051 15.8755 0.05896 15.2695 0.05896 14.5588V13.4375Z" fill="#C2C3CB"/>
</g>
</g>
</svg>
