<svg width="11" height="12" viewBox="0 0 11 12" fill="none" xmlns="http://www.w3.org/2000/svg">
<path id="Vector" opacity="0.1" d="M9.576 10.1861L6.9455 6.56493L10.5667 3.93444C11.0224 3.60341 11.1248 2.95716 10.7938 2.50146C10.4627 2.04576 9.8165 1.94335 9.3608 2.27438L5.7396 4.90489L3.1091 1.2837C2.77807 0.827996 2.13183 0.725589 1.67613 1.05662C1.22043 1.38765 1.11802 2.0339 1.44905 2.4896L4.07955 6.11077L0.458365 8.74129C0.00266506 9.07232 -0.0997437 9.71857 0.231286 10.1743C0.562316 10.63 1.20855 10.7324 1.66425 10.4013L5.28544 7.77083L7.91596 11.392C8.24699 11.8477 8.89322 11.9501 9.34892 11.6191C9.81165 11.2892 9.91294 10.65 9.576 10.1861Z" fill="white"/>
</svg>
