<svg width="1248" height="734" viewBox="0 0 1248 734" fill="none" xmlns="http://www.w3.org/2000/svg">
<g clip-path="url(#clip0_1_13842)">
<rect width="1248" height="733.894" rx="39.2157" fill="#F3F5F6"/>
<path d="M-52.5361 21.1924L1314.96 32.9402" stroke="#F6F3F5" stroke-width="59.8733"/>
<path d="M616.532 425.916L893.637 500.664" stroke="#F6F3F5" stroke-width="59.8733"/>
<path d="M216.841 482.006L-21.3761 546.964L-117.436 570.345" stroke="#F8F6F8" stroke-width="59.8733"/>
<path d="M216.327 482.582L-79.5771 566.429" stroke="white" stroke-width="19.9578"/>
<path d="M-24.4658 744.489L716.454 736.657L797.834 698.995L832.601 615.839L1021.63 252.002" stroke="#F6F3F5" stroke-width="59.8733"/>
<path d="M1019.83 -44.6875L1396.59 123.813" stroke="white" stroke-width="9.97888"/>
<path d="M1178.47 28.6787V625.054L1380.89 577.141" stroke="white" stroke-width="9.97888"/>
<path d="M364.923 -10.4805L-24.4658 359.922L280.71 513.067M806.59 776.969L391.062 568.445M1184.13 626.206L391.191 817.28M391.062 568.445L280.71 513.067M391.062 568.445L651.105 403.717M911.148 238.988L651.105 403.717M280.71 513.067L675.764 205.242M312.644 315.694L651.105 403.717" stroke="white" stroke-width="9.97888"/>
<path d="M399.689 162.396L309.682 321.568M217.357 484.08L309.682 321.568M106.36 245.553L309.682 321.568" stroke="white" stroke-width="19.9578"/>
<path d="M791.911 719.842L1015.71 252.002" stroke="white" stroke-width="19.9578"/>
<path d="M735.51 733.894L-179.759 745.296" stroke="white" stroke-width="19.9578"/>
<path d="M46.8711 536.023L191.99 640.141M337.11 744.259L191.99 640.141M191.99 640.141L478.752 616.531" stroke="white" stroke-width="9.97888"/>
<path d="M619.106 429.947L897.241 497.094" stroke="white" stroke-width="19.9578"/>
<path d="M971.926 30.4062L1012.62 263.52" stroke="white" stroke-width="19.9578"/>
<path d="M390.934 172.647L536.697 21.8828" stroke="white" stroke-width="9.97888"/>
<path d="M-73.1367 20.7314L1249.03 33.631H1335.05" stroke="white" stroke-width="19.9578"/>
<path d="M765.9 -20.501L704.865 202.938L-62.3232 99.0504L1184.13 267.897" stroke="white" stroke-width="19.9578"/>
</g>
<defs>
<clipPath id="clip0_1_13842">
<rect width="1248" height="733.894" rx="39.2157" fill="white"/>
</clipPath>
</defs>
</svg>
